<svg xmlns="http://www.w3.org/2000/svg" xmlns:xlink="http://www.w3.org/1999/xlink" viewBox="0 0 283 283"><defs><style>.cls-1{fill:#899eaa;}.cls-2{fill:#67310e;}.cls-3{fill:#fffcf4;}.potop{fill:url(#linear-gradient);}.cls-4{fill:url(#linear-gradient-3);}</style><linearGradient id="linear-gradient" x1="140.19" y1="163.8" x2="140.19" y2="250.16" gradientUnits="userSpaceOnUse"><stop offset="0" stop-color="#fffcf4"/><stop offset="0" stop-color="#d7c3b1"/><stop offset="0" stop-color="#b8977c"/><stop offset="0" stop-color="#ac8668"/><stop offset="0.14" stop-color="#9a7051"/><stop offset="0.35" stop-color="#865736"/><stop offset="0.56" stop-color="#774522"/><stop offset="0.78" stop-color="#6e3a17"/><stop offset="1" stop-color="#6b3613"/><stop offset="1" stop-color="#693310"/><stop offset="1" stop-color="#67310e"/></linearGradient><linearGradient id="linear-gradient-3" x1="91.58" y1="281" x2="91.58" y2="367.36" gradientTransform="translate(-117.04 232.28) rotate(-90)" xlink:href="#linear-gradient"/></defs><g id="Layer_2" data-name="Layer 2"><g id="Layer_5" data-name="Layer 5"><circle class="cls-1" cx="141.5" cy="141.5" r="141.5"/><path class="cls-2" d="M267.07,132.22,226,106.8A9.62,9.62,0,0,0,211.36,115V165.8A9.61,9.61,0,0,0,226,174l41-25.41A9.61,9.61,0,0,0,267.07,132.22Z"/><path class="cls-3" d="M260.18,137.34,216.79,111a3.57,3.57,0,0,0-5.43,3v52.72a3.58,3.58,0,0,0,5.43,3.05l43.39-26.36A3.58,3.58,0,0,0,260.18,137.34Z"/><path class="cls-2" d="M180.45,33.34H102.1a12.78,12.78,0,0,0-9,3.74l-55.4,55.4a12.82,12.82,0,0,0-3.74,9v78.35a12.82,12.82,0,0,0,3.74,9l55.4,55.4a12.78,12.78,0,0,0,9,3.74h78.35a12.78,12.78,0,0,0,9-3.74l55.4-55.4a12.78,12.78,0,0,0,3.74-9V101.52a12.78,12.78,0,0,0-3.74-9l-55.4-55.4A12.78,12.78,0,0,0,180.45,33.34Z"/><path class="potop" d="M143,160l31.66,76a3,3,0,0,1-2.82,4.22H108.54a3,3,0,0,1-2.82-4.22l31.66-76A3,3,0,0,1,143,160Z"/><path class="potop" d="M137.38,121.39l-31.66-76a3.05,3.05,0,0,1,2.82-4.23h63.31a3.05,3.05,0,0,1,2.82,4.23l-31.66,76A3,3,0,0,1,137.38,121.39Z"/><path class="cls-4" d="M160.15,137.88l76-31.66a3.05,3.05,0,0,1,4.23,2.82v63.31a3.05,3.05,0,0,1-4.23,2.82l-76-31.66A3.05,3.05,0,0,1,160.15,137.88Z"/><path class="potop" d="M122.41,143.51l-76,31.66a3.05,3.05,0,0,1-4.23-2.82V109a3.05,3.05,0,0,1,4.23-2.82l76,31.66A3.05,3.05,0,0,1,122.41,143.51Z"/><path class="potop" d="M128.89,156.1,97.55,232.21a3.05,3.05,0,0,1-5,1L47.8,188.43a3,3,0,0,1,1-5l76.1-31.33A3.05,3.05,0,0,1,128.89,156.1Z"/><path class="potop" d="M152.2,124.82l31.33-76.1a3,3,0,0,1,5-1l44.77,44.77a3.05,3.05,0,0,1-1,5l-76.11,31.34A3.05,3.05,0,0,1,152.2,124.82Z"/><path class="potop" d="M156.65,152.58l76.1,31.34a3,3,0,0,1,1,5L189,233.67a3,3,0,0,1-5-1l-31.34-76.1A3.06,3.06,0,0,1,156.65,152.58Z"/><path class="potop" d="M126,129.88,49.87,98.55a3.05,3.05,0,0,1-1-5L93.65,48.8a3.05,3.05,0,0,1,5,1L130,125.9A3.06,3.06,0,0,1,126,129.88Z"/><circle class="cls-2" cx="141.28" cy="141.2" r="27.87"/><path class="cls-3" d="M144.19,122.15h-5.83a12,12,0,0,0-8.49,3.52l-4.12,4.12a12,12,0,0,0-3.52,8.49v5.83a12,12,0,0,0,3.52,8.49l4.12,4.13a12,12,0,0,0,8.49,3.52h5.83a12,12,0,0,0,8.49-3.52l4.13-4.13a12,12,0,0,0,3.51-8.49v-5.83a12,12,0,0,0-3.51-8.49l-4.13-4.12A12,12,0,0,0,144.19,122.15Z"/><path class="cls-3" d="M58.89,136.54l-39.6-24.06a4.86,4.86,0,0,0-7.39,4.16v48.11a4.86,4.86,0,0,0,7.39,4.16l39.6-24.06A4.86,4.86,0,0,0,58.89,136.54Z"/><rect class="cls-1" x="9.64" y="104.2" width="24.28" height="69.73"/><rect class="cls-2" x="20.88" y="119.8" width="13.04" height="41.17"/><path class="cls-2" d="M51.17,137.64,22.59,120.28A3.2,3.2,0,0,0,17.72,123v34.72a3.21,3.21,0,0,0,4.87,2.75l28.58-17.36A3.21,3.21,0,0,0,51.17,137.64Z"/></g></g></svg>