<?xml version="1.0" encoding="UTF-8" standalone="no"?>
<!DOCTYPE svg PUBLIC "-//W3C//DTD SVG 1.1//EN"
 "http://www.w3.org/Graphics/SVG/1.1/DTD/svg11.dtd">
<!-- Generated by graphviz version 2.50.0 (20211204.2007)
 -->
<!-- Title: SPPF Pages: 1 -->
<svg width="146pt" height="292pt"
 viewBox="0.00 0.00 146.00 292.00" xmlns="http://www.w3.org/2000/svg" xmlns:xlink="http://www.w3.org/1999/xlink">
<g id="graph0" class="graph" transform="scale(1 1) rotate(0) translate(4 288)">
<title>SPPF</title>
<polygon fill="white" stroke="transparent" points="-4,4 -4,-288 142,-288 142,4 -4,4"/>
<g id="clust1" class="cluster">
<title>cluster_id18035</title>
<polygon fill="white" stroke="white" points="16,-8 16,-60 122,-60 122,-8 16,-8"/>
</g>
<g id="clust2" class="cluster">
<title>cluster_id437955208</title>
<polygon fill="white" stroke="white" points="17,-80 17,-132 121,-132 121,-80 17,-80"/>
</g>
<g id="clust3" class="cluster">
<title>cluster_id372378365</title>
<polygon fill="white" stroke="white" points="8,-152 8,-276 130,-276 130,-152 8,-152"/>
</g>
<!-- nodeid18035 -->
<g id="node1" class="node">
<title>nodeid18035</title>
<polygon fill="none" stroke="black" points="113.98,-39.56 69,-52 24.02,-39.56 24.06,-19.44 113.94,-19.44 113.98,-39.56"/>
<text text-anchor="middle" x="69" y="-30.3" font-family="Times,serif" font-size="14.00">&#39;a&#39;, 0, 1</text>
</g>
<!-- nodeid437955208 -->
<g id="node2" class="node">
<title>nodeid437955208</title>
<ellipse fill="none" stroke="black" cx="69" cy="-106" rx="44.39" ry="18"/>
<text text-anchor="middle" x="69" y="-102.3" font-family="Times,serif" font-size="14.00">expr, 0, 1</text>
</g>
<!-- nodeid437955208&#45;&gt;nodeid18035 -->
<g id="edge1" class="edge">
<title>nodeid437955208&#45;&gt;nodeid18035</title>
<path fill="none" stroke="black" d="M69,-87.7C69,-79.98 69,-70.71 69,-62.11"/>
<polygon fill="black" stroke="black" points="72.5,-62.1 69,-52.1 65.5,-62.1 72.5,-62.1"/>
</g>
<!-- nodeid372378365 -->
<g id="node3" class="node">
<title>nodeid372378365</title>
<ellipse fill="none" stroke="black" cx="72" cy="-250" rx="38.19" ry="18"/>
<text text-anchor="middle" x="72" y="-246.3" font-family="Times,serif" font-size="14.00">$$, 0, 1</text>
</g>
<!-- nodeid372378365&#45;&gt;nodeid437955208 -->
<g id="edge2" class="edge">
<title>nodeid372378365&#45;&gt;nodeid437955208</title>
<path fill="none" stroke="black" d="M94.91,-235.43C108.14,-226.17 123.6,-212.6 131,-196 138.96,-178.14 139.88,-169.42 131,-152 125.49,-141.19 116.02,-132.36 106.13,-125.49"/>
<polygon fill="black" stroke="black" points="107.73,-122.35 97.41,-119.94 103.97,-128.26 107.73,-122.35"/>
</g>
<!-- nodeid810108696 -->
<g id="node4" class="node">
<title>nodeid810108696</title>
<ellipse fill="none" stroke="black" cx="60" cy="-178" rx="44.39" ry="18"/>
<text text-anchor="middle" x="60" y="-174.3" font-family="Times,serif" font-size="14.00">expr, 0, 1</text>
</g>
<!-- nodeid372378365&#45;&gt;nodeid810108696 -->
<g id="edge3" class="edge">
<title>nodeid372378365&#45;&gt;nodeid810108696</title>
<path fill="none" stroke="black" d="M69.03,-231.7C67.71,-223.98 66.12,-214.71 64.65,-206.11"/>
<polygon fill="black" stroke="black" points="68.07,-205.37 62.93,-196.1 61.17,-206.55 68.07,-205.37"/>
</g>
<!-- nodeid810108696&#45;&gt;nodeid437955208 -->
<g id="edge4" class="edge">
<title>nodeid810108696&#45;&gt;nodeid437955208</title>
<path fill="none" stroke="black" d="M62.22,-159.7C63.22,-151.98 64.41,-142.71 65.51,-134.11"/>
<polygon fill="black" stroke="black" points="69,-134.47 66.8,-124.1 62.05,-133.58 69,-134.47"/>
</g>
<!-- nodeid810108696&#45;&gt;nodeid810108696 -->
<g id="edge5" class="edge">
<title>nodeid810108696&#45;&gt;nodeid810108696</title>
<path fill="none" stroke="black" d="M90.72,-190.94C107.19,-193.14 122.2,-188.83 122.2,-178 122.2,-169.46 112.85,-164.97 100.82,-164.53"/>
<polygon fill="black" stroke="black" points="100.53,-161.05 90.72,-165.06 100.89,-168.04 100.53,-161.05"/>
</g>
</g>
</svg>
