<?xml version="1.0" encoding="UTF-8" standalone="no"?>
<!DOCTYPE svg PUBLIC "-//W3C//DTD SVG 1.1//EN"
 "http://www.w3.org/Graphics/SVG/1.1/DTD/svg11.dtd">
<!-- Generated by graphviz version 5.0.0 (20220707.1540)
 -->
<!-- Title: SPPF Pages: 1 -->
<svg width="584pt" height="1201pt"
 viewBox="0.00 0.00 584.00 1201.22" xmlns="http://www.w3.org/2000/svg" xmlns:xlink="http://www.w3.org/1999/xlink">
<g id="graph0" class="graph" transform="scale(1 1) rotate(0) translate(4 1197.22)">
<title>SPPF</title>
<polygon fill="white" stroke="transparent" points="-4,4 -4,-1197.22 580,-1197.22 580,4 -4,4"/>
<g id="clust1" class="cluster">
<title>cluster_id2756</title>
<polygon fill="white" stroke="white" points="270,-80 270,-132 340,-132 340,-80 270,-80"/>
</g>
<g id="clust2" class="cluster">
<title>cluster_id3497</title>
<polygon fill="white" stroke="white" points="270,-8 270,-60 340,-60 340,-8 270,-8"/>
</g>
<g id="clust3" class="cluster">
<title>cluster_id1123583585</title>
<polygon fill="white" stroke="white" points="8,-161 8,-278 260,-278 260,-161 8,-161"/>
</g>
<g id="clust5" class="cluster">
<title>cluster_id_622755328</title>
<polygon fill="white" stroke="white" points="346,-161 346,-278 568,-278 568,-161 346,-161"/>
</g>
<g id="clust7" class="cluster">
<title>cluster_id3578</title>
<polygon fill="white" stroke="white" points="268,-152 268,-204 338,-204 338,-152 268,-152"/>
</g>
<g id="clust8" class="cluster">
<title>cluster_id1123583771</title>
<polygon fill="white" stroke="white" points="8,-307 8,-424 260,-424 260,-307 8,-307"/>
</g>
<g id="clust10" class="cluster">
<title>cluster_id_622755142</title>
<polygon fill="white" stroke="white" points="346,-307 346,-424 568,-424 568,-307 346,-307"/>
</g>
<g id="clust12" class="cluster">
<title>cluster_id3758</title>
<polygon fill="white" stroke="white" points="268,-298 268,-350 338,-350 338,-298 268,-298"/>
</g>
<g id="clust13" class="cluster">
<title>cluster_id1123583957</title>
<polygon fill="white" stroke="white" points="8,-453 8,-570 260,-570 260,-453 8,-453"/>
</g>
<g id="clust15" class="cluster">
<title>cluster_id_622754956</title>
<polygon fill="white" stroke="white" points="346,-453 346,-570 568,-570 568,-453 346,-453"/>
</g>
<g id="clust17" class="cluster">
<title>cluster_id3806</title>
<polygon fill="white" stroke="white" points="268,-444 268,-496 338,-496 338,-444 268,-444"/>
</g>
<g id="clust18" class="cluster">
<title>cluster_id1123584143</title>
<polygon fill="white" stroke="white" points="8,-599 8,-716 260,-716 260,-599 8,-599"/>
</g>
<g id="clust20" class="cluster">
<title>cluster_id_622754770</title>
<polygon fill="white" stroke="white" points="346,-599 346,-716 568,-716 568,-599 346,-599"/>
</g>
<g id="clust22" class="cluster">
<title>cluster_id3590</title>
<polygon fill="white" stroke="white" points="268,-590 268,-642 338,-642 338,-590 268,-590"/>
</g>
<g id="clust23" class="cluster">
<title>cluster_id1123584329</title>
<polygon fill="white" stroke="white" points="8,-745 8,-862 260,-862 260,-745 8,-745"/>
</g>
<g id="clust25" class="cluster">
<title>cluster_id_622754584</title>
<polygon fill="white" stroke="white" points="346,-745 346,-862 568,-862 568,-745 346,-745"/>
</g>
<g id="clust27" class="cluster">
<title>cluster_id4067</title>
<polygon fill="white" stroke="white" points="268,-736 268,-788 338,-788 338,-736 268,-736"/>
</g>
<g id="clust28" class="cluster">
<title>cluster_id_624559977</title>
<polygon fill="white" stroke="white" points="153,-882 153,-1005.74 311,-1005.74 311,-882 153,-882"/>
</g>
<g id="clust30" class="cluster">
<title>cluster_id1201589632</title>
<polygon fill="white" stroke="white" points="319,-882 319,-1005.74 433,-1005.74 433,-882 319,-882"/>
</g>
<g id="clust32" class="cluster">
<title>cluster_id1940300890</title>
<polygon fill="white" stroke="white" points="240,-1025.74 240,-1095.48 368,-1095.48 368,-1025.74 240,-1025.74"/>
</g>
<g id="clust33" class="cluster">
<title>cluster_id88823</title>
<polygon fill="white" stroke="white" points="252,-1115.48 252,-1185.22 356,-1185.22 356,-1115.48 252,-1115.48"/>
</g>
<!-- nodeid2756 -->
<g id="node1" class="node">
<title>nodeid2756</title>
<polygon fill="none" stroke="black" points="332,-111.56 305,-124 278,-111.56 278.03,-91.44 331.97,-91.44 332,-111.56"/>
<text text-anchor="middle" x="305" y="-102.3" font-family="Times,serif" font-size="14.00">&#39;S&#39;</text>
</g>
<!-- nodeid3497 -->
<g id="node2" class="node">
<title>nodeid3497</title>
<polygon fill="none" stroke="black" points="332,-39.56 305,-52 278,-39.56 278.03,-19.44 331.97,-19.44 332,-39.56"/>
<text text-anchor="middle" x="305" y="-30.3" font-family="Times,serif" font-size="14.00">&#39;h&#39;</text>
</g>
<!-- nodeid2756&#45;&gt;nodeid3497 -->
<!-- nodeid2756&#45;&gt;nodeid3497 -->
<!-- nodeid1123583585 -->
<g id="node3" class="node">
<title>nodeid1123583585</title>
<path fill="none" stroke="black" d="M239.5,-270C239.5,-270 28.5,-270 28.5,-270 22.5,-270 16.5,-264 16.5,-258 16.5,-258 16.5,-244 16.5,-244 16.5,-238 22.5,-232 28.5,-232 28.5,-232 239.5,-232 239.5,-232 245.5,-232 251.5,-238 251.5,-244 251.5,-244 251.5,-258 251.5,-258 251.5,-264 245.5,-270 239.5,-270"/>
<text text-anchor="middle" x="134" y="-254.8" font-family="Times,serif" font-size="14.00">dessert&#45;topping ⇒ &#39;S&#39; &#39;h&#39; • &#39;i&#39; &#39;m&#39; &#39;m&#39; &#39;e&#39; &#39;r&#39;</text>
<text text-anchor="middle" x="134" y="-239.8" font-family="Times,serif" font-size="14.00">« 0 – 2 »</text>
</g>
<!-- anond0e9 -->
<g id="node4" class="node">
<title>anond0e9</title>
<ellipse fill="none" stroke="black" cx="243" cy="-178" rx="9" ry="9"/>
</g>
<!-- nodeid1123583585&#45;&gt;anond0e9 -->
<g id="edge1" class="edge">
<title>nodeid1123583585&#45;&gt;anond0e9</title>
<path fill="none" stroke="black" d="M161.79,-231.9C182.46,-218.44 209.93,-200.54 227.04,-189.4"/>
<polygon fill="black" stroke="black" points="229.31,-192.09 235.78,-183.7 225.49,-186.23 229.31,-192.09"/>
</g>
<!-- nodeid3578 -->
<g id="node7" class="node">
<title>nodeid3578</title>
<polygon fill="none" stroke="black" points="330,-183.56 303,-196 276,-183.56 276.03,-163.44 329.97,-163.44 330,-183.56"/>
<text text-anchor="middle" x="303" y="-174.3" font-family="Times,serif" font-size="14.00">&#39;i&#39;</text>
</g>
<!-- nodeid1123583585&#45;&gt;nodeid3578 -->
<!-- anond0e9&#45;&gt;nodeid2756 -->
<g id="edge3" class="edge">
<title>anond0e9&#45;&gt;nodeid2756</title>
<path fill="none" stroke="black" d="M248.46,-170.36C252.65,-165.29 258.63,-158.14 264,-152 271.26,-143.71 279.41,-134.7 286.51,-126.94"/>
<polygon fill="black" stroke="black" points="289.53,-128.83 293.73,-119.1 284.38,-124.09 289.53,-128.83"/>
</g>
<!-- anond0e9&#45;&gt;nodeid3497 -->
<g id="edge4" class="edge">
<title>anond0e9&#45;&gt;nodeid3497</title>
<path fill="none" stroke="black" d="M243.6,-169.02C245.16,-151.85 250.37,-110.5 266,-80 270.85,-70.54 278.09,-61.42 285.02,-53.89"/>
<polygon fill="black" stroke="black" points="287.84,-56.02 292.3,-46.41 282.82,-51.14 287.84,-56.02"/>
</g>
<!-- nodeid_622755328 -->
<g id="node5" class="node">
<title>nodeid_622755328</title>
<path fill="none" stroke="black" d="M547.5,-270C547.5,-270 366.5,-270 366.5,-270 360.5,-270 354.5,-264 354.5,-258 354.5,-258 354.5,-244 354.5,-244 354.5,-238 360.5,-232 366.5,-232 366.5,-232 547.5,-232 547.5,-232 553.5,-232 559.5,-238 559.5,-244 559.5,-244 559.5,-258 559.5,-258 559.5,-264 553.5,-270 547.5,-270"/>
<text text-anchor="middle" x="457" y="-254.8" font-family="Times,serif" font-size="14.00">floor&#45;wax ⇒ &#39;S&#39; &#39;h&#39; • &#39;i&#39; &#39;m&#39; &#39;m&#39; &#39;e&#39; &#39;r&#39;</text>
<text text-anchor="middle" x="457" y="-239.8" font-family="Times,serif" font-size="14.00">« 0 – 2 »</text>
</g>
<!-- anond0e19 -->
<g id="node6" class="node">
<title>anond0e19</title>
<ellipse fill="none" stroke="black" cx="363" cy="-178" rx="9" ry="9"/>
</g>
<!-- nodeid_622755328&#45;&gt;anond0e19 -->
<g id="edge5" class="edge">
<title>nodeid_622755328&#45;&gt;anond0e19</title>
<path fill="none" stroke="black" d="M432.79,-231.72C415.49,-218.65 392.76,-201.48 378.02,-190.34"/>
<polygon fill="black" stroke="black" points="380.08,-187.51 369.99,-184.28 375.86,-193.1 380.08,-187.51"/>
</g>
<!-- nodeid_622755328&#45;&gt;nodeid3578 -->
<!-- anond0e19&#45;&gt;nodeid2756 -->
<g id="edge7" class="edge">
<title>anond0e19&#45;&gt;nodeid2756</title>
<path fill="none" stroke="black" d="M357.65,-170.54C349.63,-160.86 334.15,-142.18 322.04,-127.57"/>
<polygon fill="black" stroke="black" points="324.46,-125 315.39,-119.53 319.07,-129.47 324.46,-125"/>
</g>
<!-- anond0e19&#45;&gt;nodeid3497 -->
<g id="edge8" class="edge">
<title>anond0e19&#45;&gt;nodeid3497</title>
<path fill="none" stroke="black" d="M362.8,-168.76C362.08,-151.45 358.82,-110.38 344,-80 339.34,-70.45 332.13,-61.31 325.18,-53.79"/>
<polygon fill="black" stroke="black" points="327.36,-51.02 317.86,-46.33 322.36,-55.92 327.36,-51.02"/>
</g>
<!-- nodeid1123583771 -->
<g id="node8" class="node">
<title>nodeid1123583771</title>
<path fill="none" stroke="black" d="M239.5,-416C239.5,-416 28.5,-416 28.5,-416 22.5,-416 16.5,-410 16.5,-404 16.5,-404 16.5,-390 16.5,-390 16.5,-384 22.5,-378 28.5,-378 28.5,-378 239.5,-378 239.5,-378 245.5,-378 251.5,-384 251.5,-390 251.5,-390 251.5,-404 251.5,-404 251.5,-410 245.5,-416 239.5,-416"/>
<text text-anchor="middle" x="134" y="-400.8" font-family="Times,serif" font-size="14.00">dessert&#45;topping ⇒ &#39;S&#39; &#39;h&#39; &#39;i&#39; • &#39;m&#39; &#39;m&#39; &#39;e&#39; &#39;r&#39;</text>
<text text-anchor="middle" x="134" y="-385.8" font-family="Times,serif" font-size="14.00">« 0 – 3 »</text>
</g>
<!-- anond0e32 -->
<g id="node9" class="node">
<title>anond0e32</title>
<ellipse fill="none" stroke="black" cx="134" cy="-324" rx="9" ry="9"/>
</g>
<!-- nodeid1123583771&#45;&gt;anond0e32 -->
<g id="edge9" class="edge">
<title>nodeid1123583771&#45;&gt;anond0e32</title>
<path fill="none" stroke="black" d="M134,-377.72C134,-367.22 134,-354.06 134,-343.52"/>
<polygon fill="black" stroke="black" points="137.5,-343.36 134,-333.36 130.5,-343.36 137.5,-343.36"/>
</g>
<!-- nodeid3758 -->
<g id="node12" class="node">
<title>nodeid3758</title>
<polygon fill="none" stroke="black" points="330,-329.56 303,-342 276,-329.56 276.03,-309.44 329.97,-309.44 330,-329.56"/>
<text text-anchor="middle" x="303" y="-320.3" font-family="Times,serif" font-size="14.00">&#39;m&#39;</text>
</g>
<!-- nodeid1123583771&#45;&gt;nodeid3758 -->
<!-- anond0e32&#45;&gt;nodeid1123583585 -->
<g id="edge11" class="edge">
<title>anond0e32&#45;&gt;nodeid1123583585</title>
<path fill="none" stroke="black" d="M134,-314.86C134,-306.38 134,-292.61 134,-280.12"/>
<polygon fill="black" stroke="black" points="137.5,-280.07 134,-270.07 130.5,-280.07 137.5,-280.07"/>
</g>
<!-- anond0e32&#45;&gt;nodeid3578 -->
<g id="edge12" class="edge">
<title>anond0e32&#45;&gt;nodeid3578</title>
<path fill="none" stroke="black" d="M142.88,-322.42C165.95,-320.44 228.49,-312.05 264,-278 284.17,-258.66 294.12,-227.62 298.88,-205.45"/>
<polygon fill="black" stroke="black" points="302.37,-205.85 300.83,-195.37 295.5,-204.52 302.37,-205.85"/>
</g>
<!-- nodeid_622755142 -->
<g id="node10" class="node">
<title>nodeid_622755142</title>
<path fill="none" stroke="black" d="M547.5,-416C547.5,-416 366.5,-416 366.5,-416 360.5,-416 354.5,-410 354.5,-404 354.5,-404 354.5,-390 354.5,-390 354.5,-384 360.5,-378 366.5,-378 366.5,-378 547.5,-378 547.5,-378 553.5,-378 559.5,-384 559.5,-390 559.5,-390 559.5,-404 559.5,-404 559.5,-410 553.5,-416 547.5,-416"/>
<text text-anchor="middle" x="457" y="-400.8" font-family="Times,serif" font-size="14.00">floor&#45;wax ⇒ &#39;S&#39; &#39;h&#39; &#39;i&#39; • &#39;m&#39; &#39;m&#39; &#39;e&#39; &#39;r&#39;</text>
<text text-anchor="middle" x="457" y="-385.8" font-family="Times,serif" font-size="14.00">« 0 – 3 »</text>
</g>
<!-- anond0e42 -->
<g id="node11" class="node">
<title>anond0e42</title>
<ellipse fill="none" stroke="black" cx="457" cy="-324" rx="9" ry="9"/>
</g>
<!-- nodeid_622755142&#45;&gt;anond0e42 -->
<g id="edge13" class="edge">
<title>nodeid_622755142&#45;&gt;anond0e42</title>
<path fill="none" stroke="black" d="M457,-377.72C457,-367.22 457,-354.06 457,-343.52"/>
<polygon fill="black" stroke="black" points="460.5,-343.36 457,-333.36 453.5,-343.36 460.5,-343.36"/>
</g>
<!-- nodeid_622755142&#45;&gt;nodeid3758 -->
<!-- anond0e42&#45;&gt;nodeid_622755328 -->
<g id="edge15" class="edge">
<title>anond0e42&#45;&gt;nodeid_622755328</title>
<path fill="none" stroke="black" d="M457,-314.86C457,-306.38 457,-292.61 457,-280.12"/>
<polygon fill="black" stroke="black" points="460.5,-280.07 457,-270.07 453.5,-280.07 460.5,-280.07"/>
</g>
<!-- anond0e42&#45;&gt;nodeid3578 -->
<g id="edge16" class="edge">
<title>anond0e42&#45;&gt;nodeid3578</title>
<path fill="none" stroke="black" d="M448.22,-321.96C427.07,-319.02 372.81,-308.74 342,-278 322.22,-258.27 312.2,-227.29 307.31,-205.25"/>
<polygon fill="black" stroke="black" points="310.7,-204.35 305.3,-195.23 303.84,-205.73 310.7,-204.35"/>
</g>
<!-- nodeid1123583957 -->
<g id="node13" class="node">
<title>nodeid1123583957</title>
<path fill="none" stroke="black" d="M239.5,-562C239.5,-562 28.5,-562 28.5,-562 22.5,-562 16.5,-556 16.5,-550 16.5,-550 16.5,-536 16.5,-536 16.5,-530 22.5,-524 28.5,-524 28.5,-524 239.5,-524 239.5,-524 245.5,-524 251.5,-530 251.5,-536 251.5,-536 251.5,-550 251.5,-550 251.5,-556 245.5,-562 239.5,-562"/>
<text text-anchor="middle" x="134" y="-546.8" font-family="Times,serif" font-size="14.00">dessert&#45;topping ⇒ &#39;S&#39; &#39;h&#39; &#39;i&#39; &#39;m&#39; • &#39;m&#39; &#39;e&#39; &#39;r&#39;</text>
<text text-anchor="middle" x="134" y="-531.8" font-family="Times,serif" font-size="14.00">« 0 – 4 »</text>
</g>
<!-- anond0e54 -->
<g id="node14" class="node">
<title>anond0e54</title>
<ellipse fill="none" stroke="black" cx="134" cy="-470" rx="9" ry="9"/>
</g>
<!-- nodeid1123583957&#45;&gt;anond0e54 -->
<g id="edge17" class="edge">
<title>nodeid1123583957&#45;&gt;anond0e54</title>
<path fill="none" stroke="black" d="M134,-523.72C134,-513.22 134,-500.06 134,-489.52"/>
<polygon fill="black" stroke="black" points="137.5,-489.36 134,-479.36 130.5,-489.36 137.5,-489.36"/>
</g>
<!-- nodeid3806 -->
<g id="node17" class="node">
<title>nodeid3806</title>
<polygon fill="none" stroke="black" points="330,-475.56 303,-488 276,-475.56 276.03,-455.44 329.97,-455.44 330,-475.56"/>
<text text-anchor="middle" x="303" y="-466.3" font-family="Times,serif" font-size="14.00">&#39;m&#39;</text>
</g>
<!-- nodeid1123583957&#45;&gt;nodeid3806 -->
<!-- anond0e54&#45;&gt;nodeid1123583771 -->
<g id="edge19" class="edge">
<title>anond0e54&#45;&gt;nodeid1123583771</title>
<path fill="none" stroke="black" d="M134,-460.86C134,-452.38 134,-438.61 134,-426.12"/>
<polygon fill="black" stroke="black" points="137.5,-426.07 134,-416.07 130.5,-426.07 137.5,-426.07"/>
</g>
<!-- anond0e54&#45;&gt;nodeid3758 -->
<g id="edge20" class="edge">
<title>anond0e54&#45;&gt;nodeid3758</title>
<path fill="none" stroke="black" d="M142.88,-468.42C165.95,-466.44 228.49,-458.05 264,-424 284.17,-404.66 294.12,-373.62 298.88,-351.45"/>
<polygon fill="black" stroke="black" points="302.37,-351.85 300.83,-341.37 295.5,-350.52 302.37,-351.85"/>
</g>
<!-- nodeid_622754956 -->
<g id="node15" class="node">
<title>nodeid_622754956</title>
<path fill="none" stroke="black" d="M547.5,-562C547.5,-562 366.5,-562 366.5,-562 360.5,-562 354.5,-556 354.5,-550 354.5,-550 354.5,-536 354.5,-536 354.5,-530 360.5,-524 366.5,-524 366.5,-524 547.5,-524 547.5,-524 553.5,-524 559.5,-530 559.5,-536 559.5,-536 559.5,-550 559.5,-550 559.5,-556 553.5,-562 547.5,-562"/>
<text text-anchor="middle" x="457" y="-546.8" font-family="Times,serif" font-size="14.00">floor&#45;wax ⇒ &#39;S&#39; &#39;h&#39; &#39;i&#39; &#39;m&#39; • &#39;m&#39; &#39;e&#39; &#39;r&#39;</text>
<text text-anchor="middle" x="457" y="-531.8" font-family="Times,serif" font-size="14.00">« 0 – 4 »</text>
</g>
<!-- anond0e64 -->
<g id="node16" class="node">
<title>anond0e64</title>
<ellipse fill="none" stroke="black" cx="457" cy="-470" rx="9" ry="9"/>
</g>
<!-- nodeid_622754956&#45;&gt;anond0e64 -->
<g id="edge21" class="edge">
<title>nodeid_622754956&#45;&gt;anond0e64</title>
<path fill="none" stroke="black" d="M457,-523.72C457,-513.22 457,-500.06 457,-489.52"/>
<polygon fill="black" stroke="black" points="460.5,-489.36 457,-479.36 453.5,-489.36 460.5,-489.36"/>
</g>
<!-- nodeid_622754956&#45;&gt;nodeid3806 -->
<!-- anond0e64&#45;&gt;nodeid_622755142 -->
<g id="edge23" class="edge">
<title>anond0e64&#45;&gt;nodeid_622755142</title>
<path fill="none" stroke="black" d="M457,-460.86C457,-452.38 457,-438.61 457,-426.12"/>
<polygon fill="black" stroke="black" points="460.5,-426.07 457,-416.07 453.5,-426.07 460.5,-426.07"/>
</g>
<!-- anond0e64&#45;&gt;nodeid3758 -->
<g id="edge24" class="edge">
<title>anond0e64&#45;&gt;nodeid3758</title>
<path fill="none" stroke="black" d="M448.22,-467.96C427.07,-465.02 372.81,-454.74 342,-424 322.22,-404.27 312.2,-373.29 307.31,-351.25"/>
<polygon fill="black" stroke="black" points="310.7,-350.35 305.3,-341.23 303.84,-351.73 310.7,-350.35"/>
</g>
<!-- nodeid1123584143 -->
<g id="node18" class="node">
<title>nodeid1123584143</title>
<path fill="none" stroke="black" d="M239.5,-708C239.5,-708 28.5,-708 28.5,-708 22.5,-708 16.5,-702 16.5,-696 16.5,-696 16.5,-682 16.5,-682 16.5,-676 22.5,-670 28.5,-670 28.5,-670 239.5,-670 239.5,-670 245.5,-670 251.5,-676 251.5,-682 251.5,-682 251.5,-696 251.5,-696 251.5,-702 245.5,-708 239.5,-708"/>
<text text-anchor="middle" x="134" y="-692.8" font-family="Times,serif" font-size="14.00">dessert&#45;topping ⇒ &#39;S&#39; &#39;h&#39; &#39;i&#39; &#39;m&#39; &#39;m&#39; • &#39;e&#39; &#39;r&#39;</text>
<text text-anchor="middle" x="134" y="-677.8" font-family="Times,serif" font-size="14.00">« 0 – 5 »</text>
</g>
<!-- anond0e77 -->
<g id="node19" class="node">
<title>anond0e77</title>
<ellipse fill="none" stroke="black" cx="134" cy="-616" rx="9" ry="9"/>
</g>
<!-- nodeid1123584143&#45;&gt;anond0e77 -->
<g id="edge25" class="edge">
<title>nodeid1123584143&#45;&gt;anond0e77</title>
<path fill="none" stroke="black" d="M134,-669.72C134,-659.22 134,-646.06 134,-635.52"/>
<polygon fill="black" stroke="black" points="137.5,-635.36 134,-625.36 130.5,-635.36 137.5,-635.36"/>
</g>
<!-- nodeid3590 -->
<g id="node22" class="node">
<title>nodeid3590</title>
<polygon fill="none" stroke="black" points="330,-621.56 303,-634 276,-621.56 276.03,-601.44 329.97,-601.44 330,-621.56"/>
<text text-anchor="middle" x="303" y="-612.3" font-family="Times,serif" font-size="14.00">&#39;e&#39;</text>
</g>
<!-- nodeid1123584143&#45;&gt;nodeid3590 -->
<!-- anond0e77&#45;&gt;nodeid1123583957 -->
<g id="edge27" class="edge">
<title>anond0e77&#45;&gt;nodeid1123583957</title>
<path fill="none" stroke="black" d="M134,-606.86C134,-598.38 134,-584.61 134,-572.12"/>
<polygon fill="black" stroke="black" points="137.5,-572.07 134,-562.07 130.5,-572.07 137.5,-572.07"/>
</g>
<!-- anond0e77&#45;&gt;nodeid3806 -->
<g id="edge28" class="edge">
<title>anond0e77&#45;&gt;nodeid3806</title>
<path fill="none" stroke="black" d="M142.88,-614.42C165.95,-612.44 228.49,-604.05 264,-570 284.17,-550.66 294.12,-519.62 298.88,-497.45"/>
<polygon fill="black" stroke="black" points="302.37,-497.85 300.83,-487.37 295.5,-496.52 302.37,-497.85"/>
</g>
<!-- nodeid_622754770 -->
<g id="node20" class="node">
<title>nodeid_622754770</title>
<path fill="none" stroke="black" d="M547.5,-708C547.5,-708 366.5,-708 366.5,-708 360.5,-708 354.5,-702 354.5,-696 354.5,-696 354.5,-682 354.5,-682 354.5,-676 360.5,-670 366.5,-670 366.5,-670 547.5,-670 547.5,-670 553.5,-670 559.5,-676 559.5,-682 559.5,-682 559.5,-696 559.5,-696 559.5,-702 553.5,-708 547.5,-708"/>
<text text-anchor="middle" x="457" y="-692.8" font-family="Times,serif" font-size="14.00">floor&#45;wax ⇒ &#39;S&#39; &#39;h&#39; &#39;i&#39; &#39;m&#39; &#39;m&#39; • &#39;e&#39; &#39;r&#39;</text>
<text text-anchor="middle" x="457" y="-677.8" font-family="Times,serif" font-size="14.00">« 0 – 5 »</text>
</g>
<!-- anond0e87 -->
<g id="node21" class="node">
<title>anond0e87</title>
<ellipse fill="none" stroke="black" cx="457" cy="-616" rx="9" ry="9"/>
</g>
<!-- nodeid_622754770&#45;&gt;anond0e87 -->
<g id="edge29" class="edge">
<title>nodeid_622754770&#45;&gt;anond0e87</title>
<path fill="none" stroke="black" d="M457,-669.72C457,-659.22 457,-646.06 457,-635.52"/>
<polygon fill="black" stroke="black" points="460.5,-635.36 457,-625.36 453.5,-635.36 460.5,-635.36"/>
</g>
<!-- nodeid_622754770&#45;&gt;nodeid3590 -->
<!-- anond0e87&#45;&gt;nodeid_622754956 -->
<g id="edge31" class="edge">
<title>anond0e87&#45;&gt;nodeid_622754956</title>
<path fill="none" stroke="black" d="M457,-606.86C457,-598.38 457,-584.61 457,-572.12"/>
<polygon fill="black" stroke="black" points="460.5,-572.07 457,-562.07 453.5,-572.07 460.5,-572.07"/>
</g>
<!-- anond0e87&#45;&gt;nodeid3806 -->
<g id="edge32" class="edge">
<title>anond0e87&#45;&gt;nodeid3806</title>
<path fill="none" stroke="black" d="M448.22,-613.96C427.07,-611.02 372.81,-600.74 342,-570 322.22,-550.27 312.2,-519.29 307.31,-497.25"/>
<polygon fill="black" stroke="black" points="310.7,-496.35 305.3,-487.23 303.84,-497.73 310.7,-496.35"/>
</g>
<!-- nodeid1123584329 -->
<g id="node23" class="node">
<title>nodeid1123584329</title>
<path fill="none" stroke="black" d="M239.5,-854C239.5,-854 28.5,-854 28.5,-854 22.5,-854 16.5,-848 16.5,-842 16.5,-842 16.5,-828 16.5,-828 16.5,-822 22.5,-816 28.5,-816 28.5,-816 239.5,-816 239.5,-816 245.5,-816 251.5,-822 251.5,-828 251.5,-828 251.5,-842 251.5,-842 251.5,-848 245.5,-854 239.5,-854"/>
<text text-anchor="middle" x="134" y="-838.8" font-family="Times,serif" font-size="14.00">dessert&#45;topping ⇒ &#39;S&#39; &#39;h&#39; &#39;i&#39; &#39;m&#39; &#39;m&#39; &#39;e&#39; • &#39;r&#39;</text>
<text text-anchor="middle" x="134" y="-823.8" font-family="Times,serif" font-size="14.00">« 0 – 6 »</text>
</g>
<!-- anond0e99 -->
<g id="node24" class="node">
<title>anond0e99</title>
<ellipse fill="none" stroke="black" cx="134" cy="-762" rx="9" ry="9"/>
</g>
<!-- nodeid1123584329&#45;&gt;anond0e99 -->
<g id="edge33" class="edge">
<title>nodeid1123584329&#45;&gt;anond0e99</title>
<path fill="none" stroke="black" d="M134,-815.72C134,-805.22 134,-792.06 134,-781.52"/>
<polygon fill="black" stroke="black" points="137.5,-781.36 134,-771.36 130.5,-781.36 137.5,-781.36"/>
</g>
<!-- nodeid4067 -->
<g id="node27" class="node">
<title>nodeid4067</title>
<polygon fill="none" stroke="black" points="330,-767.56 303,-780 276,-767.56 276.03,-747.44 329.97,-747.44 330,-767.56"/>
<text text-anchor="middle" x="303" y="-758.3" font-family="Times,serif" font-size="14.00">&#39;r&#39;</text>
</g>
<!-- nodeid1123584329&#45;&gt;nodeid4067 -->
<!-- anond0e99&#45;&gt;nodeid1123584143 -->
<g id="edge35" class="edge">
<title>anond0e99&#45;&gt;nodeid1123584143</title>
<path fill="none" stroke="black" d="M134,-752.86C134,-744.38 134,-730.61 134,-718.12"/>
<polygon fill="black" stroke="black" points="137.5,-718.07 134,-708.07 130.5,-718.07 137.5,-718.07"/>
</g>
<!-- anond0e99&#45;&gt;nodeid3590 -->
<g id="edge36" class="edge">
<title>anond0e99&#45;&gt;nodeid3590</title>
<path fill="none" stroke="black" d="M142.88,-760.42C165.95,-758.44 228.49,-750.05 264,-716 284.17,-696.66 294.12,-665.62 298.88,-643.45"/>
<polygon fill="black" stroke="black" points="302.37,-643.85 300.83,-633.37 295.5,-642.52 302.37,-643.85"/>
</g>
<!-- nodeid_622754584 -->
<g id="node25" class="node">
<title>nodeid_622754584</title>
<path fill="none" stroke="black" d="M547.5,-854C547.5,-854 366.5,-854 366.5,-854 360.5,-854 354.5,-848 354.5,-842 354.5,-842 354.5,-828 354.5,-828 354.5,-822 360.5,-816 366.5,-816 366.5,-816 547.5,-816 547.5,-816 553.5,-816 559.5,-822 559.5,-828 559.5,-828 559.5,-842 559.5,-842 559.5,-848 553.5,-854 547.5,-854"/>
<text text-anchor="middle" x="457" y="-838.8" font-family="Times,serif" font-size="14.00">floor&#45;wax ⇒ &#39;S&#39; &#39;h&#39; &#39;i&#39; &#39;m&#39; &#39;m&#39; &#39;e&#39; • &#39;r&#39;</text>
<text text-anchor="middle" x="457" y="-823.8" font-family="Times,serif" font-size="14.00">« 0 – 6 »</text>
</g>
<!-- anond0e109 -->
<g id="node26" class="node">
<title>anond0e109</title>
<ellipse fill="none" stroke="black" cx="457" cy="-762" rx="9" ry="9"/>
</g>
<!-- nodeid_622754584&#45;&gt;anond0e109 -->
<g id="edge37" class="edge">
<title>nodeid_622754584&#45;&gt;anond0e109</title>
<path fill="none" stroke="black" d="M457,-815.72C457,-805.22 457,-792.06 457,-781.52"/>
<polygon fill="black" stroke="black" points="460.5,-781.36 457,-771.36 453.5,-781.36 460.5,-781.36"/>
</g>
<!-- nodeid_622754584&#45;&gt;nodeid4067 -->
<!-- anond0e109&#45;&gt;nodeid_622754770 -->
<g id="edge39" class="edge">
<title>anond0e109&#45;&gt;nodeid_622754770</title>
<path fill="none" stroke="black" d="M457,-752.86C457,-744.38 457,-730.61 457,-718.12"/>
<polygon fill="black" stroke="black" points="460.5,-718.07 457,-708.07 453.5,-718.07 460.5,-718.07"/>
</g>
<!-- anond0e109&#45;&gt;nodeid3590 -->
<g id="edge40" class="edge">
<title>anond0e109&#45;&gt;nodeid3590</title>
<path fill="none" stroke="black" d="M448.22,-759.96C427.07,-757.02 372.81,-746.74 342,-716 322.22,-696.27 312.2,-665.29 307.31,-643.25"/>
<polygon fill="black" stroke="black" points="310.7,-642.35 305.3,-633.23 303.84,-643.73 310.7,-642.35"/>
</g>
<!-- nodeid_624559977 -->
<g id="node28" class="node">
<title>nodeid_624559977</title>
<ellipse fill="none" stroke="black" cx="232" cy="-970.87" rx="70.92" ry="26.74"/>
<text text-anchor="middle" x="232" y="-974.67" font-family="Times,serif" font-size="14.00">dessert&#45;topping</text>
<text text-anchor="middle" x="232" y="-959.67" font-family="Times,serif" font-size="14.00">« 0 – 7 »</text>
</g>
<!-- anond0e122 -->
<g id="node29" class="node">
<title>anond0e122</title>
<ellipse fill="none" stroke="black" cx="232" cy="-899" rx="9" ry="9"/>
</g>
<!-- nodeid_624559977&#45;&gt;anond0e122 -->
<g id="edge41" class="edge">
<title>nodeid_624559977&#45;&gt;anond0e122</title>
<path fill="none" stroke="black" d="M232,-943.85C232,-935.41 232,-926.22 232,-918.44"/>
<polygon fill="black" stroke="black" points="235.5,-918.31 232,-908.31 228.5,-918.31 235.5,-918.31"/>
</g>
<!-- anond0e122&#45;&gt;nodeid1123584329 -->
<g id="edge43" class="edge">
<title>anond0e122&#45;&gt;nodeid1123584329</title>
<path fill="none" stroke="black" d="M224.63,-893.34C213.31,-886.18 190.87,-871.98 171.15,-859.5"/>
<polygon fill="black" stroke="black" points="172.94,-856.5 162.62,-854.11 169.2,-862.41 172.94,-856.5"/>
</g>
<!-- anond0e122&#45;&gt;nodeid4067 -->
<g id="edge44" class="edge">
<title>anond0e122&#45;&gt;nodeid4067</title>
<path fill="none" stroke="black" d="M238.14,-892.41C245.16,-885.73 256.65,-873.97 264,-862 278.48,-838.44 289.36,-808.58 295.9,-787.84"/>
<polygon fill="black" stroke="black" points="299.28,-788.77 298.84,-778.19 292.58,-786.74 299.28,-788.77"/>
</g>
<!-- nodeid1201589632 -->
<g id="node30" class="node">
<title>nodeid1201589632</title>
<ellipse fill="none" stroke="black" cx="376" cy="-970.87" rx="49.49" ry="26.74"/>
<text text-anchor="middle" x="376" y="-974.67" font-family="Times,serif" font-size="14.00">floor&#45;wax</text>
<text text-anchor="middle" x="376" y="-959.67" font-family="Times,serif" font-size="14.00">« 0 – 7 »</text>
</g>
<!-- anond0e132 -->
<g id="node31" class="node">
<title>anond0e132</title>
<ellipse fill="none" stroke="black" cx="376" cy="-899" rx="9" ry="9"/>
</g>
<!-- nodeid1201589632&#45;&gt;anond0e132 -->
<g id="edge45" class="edge">
<title>nodeid1201589632&#45;&gt;anond0e132</title>
<path fill="none" stroke="black" d="M376,-943.85C376,-935.41 376,-926.22 376,-918.44"/>
<polygon fill="black" stroke="black" points="379.5,-918.31 376,-908.31 372.5,-918.31 379.5,-918.31"/>
</g>
<!-- anond0e132&#45;&gt;nodeid_622754584 -->
<g id="edge47" class="edge">
<title>anond0e132&#45;&gt;nodeid_622754584</title>
<path fill="none" stroke="black" d="M382.91,-892.71C392.2,-885.6 409.36,-872.46 424.83,-860.62"/>
<polygon fill="black" stroke="black" points="427.38,-863.08 433.19,-854.22 423.12,-857.52 427.38,-863.08"/>
</g>
<!-- anond0e132&#45;&gt;nodeid4067 -->
<g id="edge48" class="edge">
<title>anond0e132&#45;&gt;nodeid4067</title>
<path fill="none" stroke="black" d="M369.46,-892.48C361.97,-885.88 349.75,-874.19 342,-862 327.17,-838.66 316.35,-808.76 309.92,-787.96"/>
<polygon fill="black" stroke="black" points="313.24,-786.85 307.04,-778.27 306.53,-788.85 313.24,-786.85"/>
</g>
<!-- nodeid1940300890 -->
<g id="node32" class="node">
<title>nodeid1940300890</title>
<ellipse fill="none" stroke="black" cx="304" cy="-1060.61" rx="55.72" ry="26.74"/>
<text text-anchor="middle" x="304" y="-1064.41" font-family="Times,serif" font-size="14.00">product</text>
<text text-anchor="middle" x="304" y="-1049.41" font-family="Times,serif" font-size="14.00">« 0 – 7 » / 2</text>
</g>
<!-- nodeid1940300890&#45;&gt;nodeid_624559977 -->
<g id="edge49" class="edge">
<title>nodeid1940300890&#45;&gt;nodeid_624559977</title>
<path fill="none" stroke="black" d="M283.94,-1035.17C276.2,-1025.73 267.21,-1014.78 258.92,-1004.67"/>
<polygon fill="black" stroke="black" points="261.5,-1002.3 252.45,-996.79 256.09,-1006.74 261.5,-1002.3"/>
</g>
<!-- nodeid1940300890&#45;&gt;nodeid1201589632 -->
<g id="edge50" class="edge">
<title>nodeid1940300890&#45;&gt;nodeid1201589632</title>
<path fill="none" stroke="black" d="M324.06,-1035.17C332,-1025.49 341.25,-1014.22 349.71,-1003.9"/>
<polygon fill="black" stroke="black" points="352.66,-1005.83 356.3,-995.88 347.25,-1001.39 352.66,-1005.83"/>
</g>
<!-- nodeid88823 -->
<g id="node33" class="node">
<title>nodeid88823</title>
<ellipse fill="none" stroke="black" cx="304" cy="-1150.35" rx="43.68" ry="26.74"/>
<text text-anchor="middle" x="304" y="-1154.15" font-family="Times,serif" font-size="14.00">$$</text>
<text text-anchor="middle" x="304" y="-1139.15" font-family="Times,serif" font-size="14.00">« 0 – 7 »</text>
</g>
<!-- nodeid88823&#45;&gt;nodeid1940300890 -->
<g id="edge51" class="edge">
<title>nodeid88823&#45;&gt;nodeid1940300890</title>
<path fill="none" stroke="black" d="M304,-1123.03C304,-1115.06 304,-1106.17 304,-1097.68"/>
<polygon fill="black" stroke="black" points="307.5,-1097.61 304,-1087.61 300.5,-1097.61 307.5,-1097.61"/>
</g>
</g>
</svg>
