<?xml version="1.0" encoding="UTF-8" standalone="no"?>
<!DOCTYPE svg PUBLIC "-//W3C//DTD SVG 1.1//EN"
 "http://www.w3.org/Graphics/SVG/1.1/DTD/svg11.dtd">
<!-- Generated by graphviz version 5.0.0 (20220707.1540)
 -->
<!-- Title: SPPF Pages: 1 -->
<svg width="170pt" height="255pt"
 viewBox="0.00 0.00 170.00 255.48" xmlns="http://www.w3.org/2000/svg" xmlns:xlink="http://www.w3.org/1999/xlink">
<g id="graph0" class="graph" transform="scale(1 1) rotate(0) translate(4 251.48)">
<title>SPPF</title>
<polygon fill="white" stroke="transparent" points="-4,4 -4,-251.48 166,-251.48 166,4 -4,4"/>
<g id="clust1" class="cluster">
<title>cluster_id3218</title>
<polygon fill="white" stroke="white" points="37,-8 37,-60 107,-60 107,-8 37,-8"/>
</g>
<g id="clust2" class="cluster">
<title>cluster_id240840386</title>
<polygon fill="white" stroke="white" points="8,-80 8,-149.74 154,-149.74 154,-80 8,-80"/>
</g>
<g id="clust3" class="cluster">
<title>cluster_id88721</title>
<polygon fill="white" stroke="white" points="20,-169.74 20,-239.48 124,-239.48 124,-169.74 20,-169.74"/>
</g>
<!-- nodeid3218 -->
<g id="node1" class="node">
<title>nodeid3218</title>
<polygon fill="none" stroke="black" points="99,-39.56 72,-52 45,-39.56 45.03,-19.44 98.97,-19.44 99,-39.56"/>
<text text-anchor="middle" x="72" y="-30.3" font-family="Times,serif" font-size="14.00">&#39;a&#39;</text>
</g>
<!-- nodeid240840386 -->
<g id="node2" class="node">
<title>nodeid240840386</title>
<ellipse fill="none" stroke="black" cx="72" cy="-114.87" rx="55.72" ry="26.74"/>
<text text-anchor="middle" x="72" y="-118.67" font-family="Times,serif" font-size="14.00">expr</text>
<text text-anchor="middle" x="72" y="-103.67" font-family="Times,serif" font-size="14.00">« 0 – 1 » / 2</text>
</g>
<!-- nodeid240840386&#45;&gt;nodeid3218 -->
<g id="edge1" class="edge">
<title>nodeid240840386&#45;&gt;nodeid3218</title>
<path fill="none" stroke="black" d="M72,-87.61C72,-79.51 72,-70.57 72,-62.39"/>
<polygon fill="black" stroke="black" points="75.5,-62.22 72,-52.22 68.5,-62.22 75.5,-62.22"/>
</g>
<!-- nodeid240840386&#45;&gt;nodeid240840386 -->
<g id="edge2" class="edge">
<title>nodeid240840386&#45;&gt;nodeid240840386</title>
<path fill="none" stroke="black" d="M118.52,-129.87C133.74,-129.79 145.86,-124.79 145.86,-114.87 145.86,-107.27 138.76,-102.56 128.6,-100.74"/>
<polygon fill="black" stroke="black" points="128.79,-97.24 118.52,-99.87 128.19,-104.21 128.79,-97.24"/>
</g>
<!-- nodeid88721 -->
<g id="node3" class="node">
<title>nodeid88721</title>
<ellipse fill="none" stroke="black" cx="72" cy="-204.61" rx="43.68" ry="26.74"/>
<text text-anchor="middle" x="72" y="-208.41" font-family="Times,serif" font-size="14.00">$$</text>
<text text-anchor="middle" x="72" y="-193.41" font-family="Times,serif" font-size="14.00">« 0 – 1 »</text>
</g>
<!-- nodeid88721&#45;&gt;nodeid240840386 -->
<g id="edge3" class="edge">
<title>nodeid88721&#45;&gt;nodeid240840386</title>
<path fill="none" stroke="black" d="M72,-177.29C72,-169.32 72,-160.43 72,-151.94"/>
<polygon fill="black" stroke="black" points="75.5,-151.87 72,-141.87 68.5,-151.87 75.5,-151.87"/>
</g>
</g>
</svg>
