<?xml version="1.0" encoding="UTF-8" standalone="no"?>
<!DOCTYPE svg PUBLIC "-//W3C//DTD SVG 1.1//EN"
 "http://www.w3.org/Graphics/SVG/1.1/DTD/svg11.dtd">
<!-- Generated by graphviz version 8.0.5 (20230430.1635)
 -->
<!-- Title: SPPF Pages: 1 -->
<svg width="146pt" height="293pt"
 viewBox="0.00 0.00 146.00 292.77" xmlns="http://www.w3.org/2000/svg" xmlns:xlink="http://www.w3.org/1999/xlink">
<g id="graph0" class="graph" transform="scale(1 1) rotate(0) translate(4 288.77)">
<title>SPPF</title>
<polygon fill="white" stroke="none" points="-4,4 -4,-288.77 142,-288.77 142,4 -4,4"/>
<g id="clust1" class="cluster">
<title>cluster_id315</title>
<polygon fill="white" stroke="white" points="13,-8 13,-93.05 107,-93.05 107,-8 13,-8"/>
</g>
<g id="clust2" class="cluster">
<title>cluster_id316</title>
<polygon fill="white" stroke="white" points="8,-113.05 8,-184.91 130,-184.91 130,-113.05 8,-113.05"/>
</g>
<g id="clust3" class="cluster">
<title>cluster_id317</title>
<polygon fill="white" stroke="white" points="21,-204.91 21,-276.77 99,-276.77 99,-204.91 21,-204.91"/>
</g>
<!-- nodeid315 -->
<g id="node1" class="node">
<title>nodeid315</title>
<polygon fill="none" stroke="#d55e00" stroke-width="3" points="98.89,-61.19 60,-85.05 21.11,-61.19 21.14,-22.59 98.86,-22.59 98.89,-61.19"/>
<text text-anchor="start" x="53.25" y="-52.97" font-family="Arial" font-size="14.00">&#39;a&#39;</text>
<text text-anchor="start" x="45.75" y="-37.22" font-family="Arial" font-size="14.00">« 1 »</text>
</g>
<!-- nodeid316 -->
<g id="node2" class="node">
<title>nodeid316</title>
<ellipse fill="none" stroke="#d55e00" stroke-width="3" cx="60" cy="-148.98" rx="43.66" ry="27.93"/>
<text text-anchor="start" x="46.88" y="-151.43" font-family="Arial" font-size="14.00" fill="#0072b2">expr</text>
<text text-anchor="start" x="37.12" y="-135.68" font-family="Arial" font-size="14.00" fill="#0072b2">« 1 » / 2</text>
</g>
<!-- nodeid316&#45;&gt;nodeid315 -->
<g id="edge1" class="edge">
<title>nodeid316&#45;&gt;nodeid315</title>
<path fill="none" stroke="black" d="M60,-119.56C60,-112.62 60,-105.01 60,-97.48"/>
<polygon fill="black" stroke="black" points="63.5,-97.58 60,-87.58 56.5,-97.58 63.5,-97.58"/>
</g>
<!-- nodeid316&#45;&gt;nodeid316 -->
<g id="edge2" class="edge">
<title>nodeid316&#45;&gt;nodeid316</title>
<path fill="none" stroke="black" d="M96.41,-166.15C110.23,-166.81 121.66,-161.09 121.66,-148.98 121.66,-140.27 115.76,-134.87 107.3,-132.76"/>
<polygon fill="black" stroke="black" points="107.68,-129.2 97.41,-131.81 107.07,-136.17 107.68,-129.2"/>
</g>
<!-- nodeid317 -->
<g id="node3" class="node">
<title>nodeid317</title>
<ellipse fill="none" stroke="#d55e00" stroke-width="3" cx="60" cy="-240.84" rx="31.47" ry="27.93"/>
<text text-anchor="start" x="52.5" y="-243.29" font-family="Arial" font-size="14.00">$$</text>
<text text-anchor="start" x="45.75" y="-227.54" font-family="Arial" font-size="14.00">« 1 »</text>
</g>
<!-- nodeid317&#45;&gt;nodeid316 -->
<g id="edge3" class="edge">
<title>nodeid317&#45;&gt;nodeid316</title>
<path fill="none" stroke="black" d="M60,-211.9C60,-204.7 60,-196.82 60,-189.16"/>
<polygon fill="black" stroke="black" points="63.5,-189.21 60,-179.21 56.5,-189.21 63.5,-189.21"/>
</g>
</g>
</svg>
