<?xml version="1.0" encoding="UTF-8" standalone="no"?>
<!DOCTYPE svg PUBLIC "-//W3C//DTD SVG 1.1//EN"
 "http://www.w3.org/Graphics/SVG/1.1/DTD/svg11.dtd">
<!-- Generated by graphviz version 2.50.0 (20211204.2007)
 -->
<!-- Title: SPPF Pages: 1 -->
<svg width="684pt" height="1138pt"
 viewBox="0.00 0.00 684.00 1138.00" xmlns="http://www.w3.org/2000/svg" xmlns:xlink="http://www.w3.org/1999/xlink">
<g id="graph0" class="graph" transform="scale(1 1) rotate(0) translate(4 1134)">
<title>SPPF</title>
<polygon fill="white" stroke="transparent" points="-4,4 -4,-1134 680,-1134 680,4 -4,4"/>
<g id="clust1" class="cluster">
<title>cluster_id77595</title>
<polygon fill="white" stroke="white" points="300,-80 300,-132 408,-132 408,-80 300,-80"/>
</g>
<g id="clust2" class="cluster">
<title>cluster_id79705</title>
<polygon fill="white" stroke="white" points="301,-8 301,-60 407,-60 407,-8 301,-8"/>
</g>
<g id="clust3" class="cluster">
<title>cluster_id815097658</title>
<polygon fill="white" stroke="white" points="14,-161 14,-276 294,-276 294,-161 14,-161"/>
</g>
<g id="clust5" class="cluster">
<title>cluster_id513716324</title>
<polygon fill="white" stroke="white" points="412,-161 412,-276 662,-276 662,-161 412,-161"/>
</g>
<g id="clust7" class="cluster">
<title>cluster_id79897</title>
<polygon fill="white" stroke="white" points="302,-152 302,-204 404,-204 404,-152 302,-152"/>
</g>
<g id="clust8" class="cluster">
<title>cluster_id815097972</title>
<polygon fill="white" stroke="white" points="8,-305 8,-420 288,-420 288,-305 8,-305"/>
</g>
<g id="clust10" class="cluster">
<title>cluster_id513716638</title>
<polygon fill="white" stroke="white" points="418,-305 418,-420 668,-420 668,-305 418,-305"/>
</g>
<g id="clust12" class="cluster">
<title>cluster_id80386</title>
<polygon fill="white" stroke="white" points="296,-296 296,-348 410,-348 410,-296 296,-296"/>
</g>
<g id="clust13" class="cluster">
<title>cluster_id815098286</title>
<polygon fill="white" stroke="white" points="8,-449 8,-564 288,-564 288,-449 8,-449"/>
</g>
<g id="clust15" class="cluster">
<title>cluster_id513716952</title>
<polygon fill="white" stroke="white" points="418,-449 418,-564 668,-564 668,-449 418,-449"/>
</g>
<g id="clust17" class="cluster">
<title>cluster_id80479</title>
<polygon fill="white" stroke="white" points="296,-440 296,-492 410,-492 410,-440 296,-440"/>
</g>
<g id="clust18" class="cluster">
<title>cluster_id815098600</title>
<polygon fill="white" stroke="white" points="8,-593 8,-708 288,-708 288,-593 8,-593"/>
</g>
<g id="clust20" class="cluster">
<title>cluster_id513717266</title>
<polygon fill="white" stroke="white" points="410,-593 410,-708 660,-708 660,-593 410,-593"/>
</g>
<g id="clust22" class="cluster">
<title>cluster_id79780</title>
<polygon fill="white" stroke="white" points="296,-584 296,-636 402,-636 402,-584 296,-584"/>
</g>
<g id="clust23" class="cluster">
<title>cluster_id815098914</title>
<polygon fill="white" stroke="white" points="8,-737 8,-852 288,-852 288,-737 8,-737"/>
</g>
<g id="clust25" class="cluster">
<title>cluster_id513717580</title>
<polygon fill="white" stroke="white" points="406,-737 406,-852 656,-852 656,-737 406,-737"/>
</g>
<g id="clust27" class="cluster">
<title>cluster_id81160</title>
<polygon fill="white" stroke="white" points="296,-728 296,-780 398,-780 398,-728 296,-728"/>
</g>
<g id="clust28" class="cluster">
<title>cluster_id254313084</title>
<polygon fill="white" stroke="white" points="170,-872 170,-978 352,-978 352,-872 170,-872"/>
</g>
<g id="clust30" class="cluster">
<title>cluster_id_1110833737</title>
<polygon fill="white" stroke="white" points="360,-872 360,-978 504,-978 504,-872 360,-872"/>
</g>
<g id="clust32" class="cluster">
<title>cluster_id_2122757809</title>
<polygon fill="white" stroke="white" points="206,-998 206,-1050 334,-1050 334,-998 206,-998"/>
</g>
<g id="clust33" class="cluster">
<title>cluster_id1870828153</title>
<polygon fill="white" stroke="white" points="359,-998 359,-1050 487,-1050 487,-998 359,-998"/>
</g>
<g id="clust34" class="cluster">
<title>cluster_id1827523986</title>
<polygon fill="white" stroke="white" points="300,-1070 300,-1122 392,-1122 392,-1070 300,-1070"/>
</g>
<!-- nodeid77595 -->
<g id="node1" class="node">
<title>nodeid77595</title>
<polygon fill="none" stroke="black" points="399.59,-111.56 354,-124 308.41,-111.56 308.46,-91.44 399.54,-91.44 399.59,-111.56"/>
<text text-anchor="middle" x="354" y="-102.3" font-family="Times,serif" font-size="14.00">&#39;S&#39;, 0, 1</text>
</g>
<!-- nodeid79705 -->
<g id="node2" class="node">
<title>nodeid79705</title>
<polygon fill="none" stroke="black" points="398.98,-39.56 354,-52 309.02,-39.56 309.06,-19.44 398.94,-19.44 398.98,-39.56"/>
<text text-anchor="middle" x="354" y="-30.3" font-family="Times,serif" font-size="14.00">&#39;h&#39;, 1, 2</text>
</g>
<!-- nodeid77595&#45;&gt;nodeid79705 -->
<!-- nodeid77595&#45;&gt;nodeid79705 -->
<!-- nodeid815097658 -->
<g id="node3" class="node">
<title>nodeid815097658</title>
<path fill="none" stroke="black" d="M273.5,-268C273.5,-268 34.5,-268 34.5,-268 28.5,-268 22.5,-262 22.5,-256 22.5,-256 22.5,-244 22.5,-244 22.5,-238 28.5,-232 34.5,-232 34.5,-232 273.5,-232 273.5,-232 279.5,-232 285.5,-238 285.5,-244 285.5,-244 285.5,-256 285.5,-256 285.5,-262 279.5,-268 273.5,-268"/>
<text text-anchor="middle" x="154" y="-246.3" font-family="Times,serif" font-size="14.00">dessert&#45;topping ⇒ &#39;S&#39; &#39;h&#39; • &#39;i&#39; &#39;m&#39; &#39;m&#39; &#39;e&#39; &#39;r&#39;, 0, 2</text>
</g>
<!-- anond0e9 -->
<g id="node4" class="node">
<title>anond0e9</title>
<ellipse fill="none" stroke="black" cx="277" cy="-178" rx="9" ry="9"/>
</g>
<!-- nodeid815097658&#45;&gt;anond0e9 -->
<g id="edge1" class="edge">
<title>nodeid815097658&#45;&gt;anond0e9</title>
<path fill="none" stroke="black" d="M184.09,-231.88C208.19,-218.16 241.1,-199.43 260.59,-188.34"/>
<polygon fill="black" stroke="black" points="262.48,-191.29 269.44,-183.3 259.02,-185.21 262.48,-191.29"/>
</g>
<!-- nodeid79897 -->
<g id="node7" class="node">
<title>nodeid79897</title>
<polygon fill="none" stroke="black" points="395.66,-183.56 353,-196 310.34,-183.56 310.38,-163.44 395.62,-163.44 395.66,-183.56"/>
<text text-anchor="middle" x="353" y="-174.3" font-family="Times,serif" font-size="14.00">&#39;i&#39;, 2, 3</text>
</g>
<!-- nodeid815097658&#45;&gt;nodeid79897 -->
<!-- anond0e9&#45;&gt;nodeid77595 -->
<g id="edge3" class="edge">
<title>anond0e9&#45;&gt;nodeid77595</title>
<path fill="none" stroke="black" d="M282.19,-170.11C286.25,-164.91 292.17,-157.71 298,-152 307.47,-142.73 318.73,-133.41 328.66,-125.67"/>
<polygon fill="black" stroke="black" points="330.8,-128.43 336.61,-119.57 326.55,-122.87 330.8,-128.43"/>
</g>
<!-- anond0e9&#45;&gt;nodeid79705 -->
<g id="edge4" class="edge">
<title>anond0e9&#45;&gt;nodeid79705</title>
<path fill="none" stroke="black" d="M276.74,-168.77C276.56,-151.13 278.18,-108.93 296,-80 302.95,-68.73 313.81,-59.19 324.26,-51.84"/>
<polygon fill="black" stroke="black" points="326.42,-54.61 332.86,-46.19 322.58,-48.76 326.42,-54.61"/>
</g>
<!-- nodeid513716324 -->
<g id="node5" class="node">
<title>nodeid513716324</title>
<path fill="none" stroke="black" d="M641.5,-268C641.5,-268 432.5,-268 432.5,-268 426.5,-268 420.5,-262 420.5,-256 420.5,-256 420.5,-244 420.5,-244 420.5,-238 426.5,-232 432.5,-232 432.5,-232 641.5,-232 641.5,-232 647.5,-232 653.5,-238 653.5,-244 653.5,-244 653.5,-256 653.5,-256 653.5,-262 647.5,-268 641.5,-268"/>
<text text-anchor="middle" x="537" y="-246.3" font-family="Times,serif" font-size="14.00">floor&#45;wax ⇒ &#39;S&#39; &#39;h&#39; • &#39;i&#39; &#39;m&#39; &#39;m&#39; &#39;e&#39; &#39;r&#39;, 0, 2</text>
</g>
<!-- anond0e19 -->
<g id="node6" class="node">
<title>anond0e19</title>
<ellipse fill="none" stroke="black" cx="429" cy="-178" rx="9" ry="9"/>
</g>
<!-- nodeid513716324&#45;&gt;anond0e19 -->
<g id="edge5" class="edge">
<title>nodeid513716324&#45;&gt;anond0e19</title>
<path fill="none" stroke="black" d="M510.58,-231.88C490.12,-218.61 462.43,-200.67 445.15,-189.47"/>
<polygon fill="black" stroke="black" points="446.6,-186.24 436.31,-183.74 442.8,-192.11 446.6,-186.24"/>
</g>
<!-- nodeid513716324&#45;&gt;nodeid79897 -->
<!-- anond0e19&#45;&gt;nodeid77595 -->
<g id="edge7" class="edge">
<title>anond0e19&#45;&gt;nodeid77595</title>
<path fill="none" stroke="black" d="M423.78,-170.14C419.7,-164.95 413.78,-157.76 408,-152 398.91,-142.94 388.17,-133.73 378.67,-126.02"/>
<polygon fill="black" stroke="black" points="380.72,-123.18 370.72,-119.67 376.35,-128.65 380.72,-123.18"/>
</g>
<!-- anond0e19&#45;&gt;nodeid79705 -->
<g id="edge8" class="edge">
<title>anond0e19&#45;&gt;nodeid79705</title>
<path fill="none" stroke="black" d="M429.47,-168.78C430.09,-151.16 429.47,-109 412,-80 405.17,-68.66 394.32,-59.11 383.86,-51.77"/>
<polygon fill="black" stroke="black" points="385.53,-48.68 375.24,-46.13 381.69,-54.53 385.53,-48.68"/>
</g>
<!-- nodeid815097972 -->
<g id="node8" class="node">
<title>nodeid815097972</title>
<path fill="none" stroke="black" d="M267.5,-412C267.5,-412 28.5,-412 28.5,-412 22.5,-412 16.5,-406 16.5,-400 16.5,-400 16.5,-388 16.5,-388 16.5,-382 22.5,-376 28.5,-376 28.5,-376 267.5,-376 267.5,-376 273.5,-376 279.5,-382 279.5,-388 279.5,-388 279.5,-400 279.5,-400 279.5,-406 273.5,-412 267.5,-412"/>
<text text-anchor="middle" x="148" y="-390.3" font-family="Times,serif" font-size="14.00">dessert&#45;topping ⇒ &#39;S&#39; &#39;h&#39; &#39;i&#39; • &#39;m&#39; &#39;m&#39; &#39;e&#39; &#39;r&#39;, 0, 3</text>
</g>
<!-- anond0e32 -->
<g id="node9" class="node">
<title>anond0e32</title>
<ellipse fill="none" stroke="black" cx="154" cy="-322" rx="9" ry="9"/>
</g>
<!-- nodeid815097972&#45;&gt;anond0e32 -->
<g id="edge9" class="edge">
<title>nodeid815097972&#45;&gt;anond0e32</title>
<path fill="none" stroke="black" d="M149.48,-375.7C150.38,-365.23 151.52,-351.9 152.43,-341.27"/>
<polygon fill="black" stroke="black" points="155.94,-341.31 153.31,-331.05 148.97,-340.71 155.94,-341.31"/>
</g>
<!-- nodeid80386 -->
<g id="node12" class="node">
<title>nodeid80386</title>
<polygon fill="none" stroke="black" points="402.01,-327.56 353,-340 303.99,-327.56 304.03,-307.44 401.97,-307.44 402.01,-327.56"/>
<text text-anchor="middle" x="353" y="-318.3" font-family="Times,serif" font-size="14.00">&#39;m&#39;, 3, 4</text>
</g>
<!-- nodeid815097972&#45;&gt;nodeid80386 -->
<!-- anond0e32&#45;&gt;nodeid815097658 -->
<g id="edge11" class="edge">
<title>anond0e32&#45;&gt;nodeid815097658</title>
<path fill="none" stroke="black" d="M154,-312.97C154,-304.58 154,-290.95 154,-278.6"/>
<polygon fill="black" stroke="black" points="157.5,-278.25 154,-268.25 150.5,-278.25 157.5,-278.25"/>
</g>
<!-- anond0e32&#45;&gt;nodeid79897 -->
<g id="edge12" class="edge">
<title>anond0e32&#45;&gt;nodeid79897</title>
<path fill="none" stroke="black" d="M163.17,-320.43C187.7,-318.46 255.81,-310.05 298,-276 321.02,-257.42 336.15,-226.47 344.62,-204.52"/>
<polygon fill="black" stroke="black" points="348,-205.46 348.14,-194.86 341.42,-203.06 348,-205.46"/>
</g>
<!-- nodeid513716638 -->
<g id="node10" class="node">
<title>nodeid513716638</title>
<path fill="none" stroke="black" d="M647.5,-412C647.5,-412 438.5,-412 438.5,-412 432.5,-412 426.5,-406 426.5,-400 426.5,-400 426.5,-388 426.5,-388 426.5,-382 432.5,-376 438.5,-376 438.5,-376 647.5,-376 647.5,-376 653.5,-376 659.5,-382 659.5,-388 659.5,-388 659.5,-400 659.5,-400 659.5,-406 653.5,-412 647.5,-412"/>
<text text-anchor="middle" x="543" y="-390.3" font-family="Times,serif" font-size="14.00">floor&#45;wax ⇒ &#39;S&#39; &#39;h&#39; &#39;i&#39; • &#39;m&#39; &#39;m&#39; &#39;e&#39; &#39;r&#39;, 0, 3</text>
</g>
<!-- anond0e42 -->
<g id="node11" class="node">
<title>anond0e42</title>
<ellipse fill="none" stroke="black" cx="537" cy="-322" rx="9" ry="9"/>
</g>
<!-- nodeid513716638&#45;&gt;anond0e42 -->
<g id="edge13" class="edge">
<title>nodeid513716638&#45;&gt;anond0e42</title>
<path fill="none" stroke="black" d="M541.52,-375.7C540.62,-365.23 539.48,-351.9 538.57,-341.27"/>
<polygon fill="black" stroke="black" points="542.03,-340.71 537.69,-331.05 535.06,-341.31 542.03,-340.71"/>
</g>
<!-- nodeid513716638&#45;&gt;nodeid80386 -->
<!-- anond0e42&#45;&gt;nodeid513716324 -->
<g id="edge15" class="edge">
<title>anond0e42&#45;&gt;nodeid513716324</title>
<path fill="none" stroke="black" d="M537,-312.97C537,-304.58 537,-290.95 537,-278.6"/>
<polygon fill="black" stroke="black" points="540.5,-278.25 537,-268.25 533.5,-278.25 540.5,-278.25"/>
</g>
<!-- anond0e42&#45;&gt;nodeid79897 -->
<g id="edge16" class="edge">
<title>anond0e42&#45;&gt;nodeid79897</title>
<path fill="none" stroke="black" d="M528.13,-320.06C505.6,-317.27 445.34,-307.15 408,-276 385.29,-257.05 370.09,-226.16 361.53,-204.34"/>
<polygon fill="black" stroke="black" points="364.73,-202.89 357.96,-194.74 358.17,-205.33 364.73,-202.89"/>
</g>
<!-- nodeid815098286 -->
<g id="node13" class="node">
<title>nodeid815098286</title>
<path fill="none" stroke="black" d="M267.5,-556C267.5,-556 28.5,-556 28.5,-556 22.5,-556 16.5,-550 16.5,-544 16.5,-544 16.5,-532 16.5,-532 16.5,-526 22.5,-520 28.5,-520 28.5,-520 267.5,-520 267.5,-520 273.5,-520 279.5,-526 279.5,-532 279.5,-532 279.5,-544 279.5,-544 279.5,-550 273.5,-556 267.5,-556"/>
<text text-anchor="middle" x="148" y="-534.3" font-family="Times,serif" font-size="14.00">dessert&#45;topping ⇒ &#39;S&#39; &#39;h&#39; &#39;i&#39; &#39;m&#39; • &#39;m&#39; &#39;e&#39; &#39;r&#39;, 0, 4</text>
</g>
<!-- anond0e54 -->
<g id="node14" class="node">
<title>anond0e54</title>
<ellipse fill="none" stroke="black" cx="148" cy="-466" rx="9" ry="9"/>
</g>
<!-- nodeid815098286&#45;&gt;anond0e54 -->
<g id="edge17" class="edge">
<title>nodeid815098286&#45;&gt;anond0e54</title>
<path fill="none" stroke="black" d="M148,-519.7C148,-509.23 148,-495.9 148,-485.27"/>
<polygon fill="black" stroke="black" points="151.5,-485.05 148,-475.05 144.5,-485.05 151.5,-485.05"/>
</g>
<!-- nodeid80479 -->
<g id="node17" class="node">
<title>nodeid80479</title>
<polygon fill="none" stroke="black" points="402.01,-471.56 353,-484 303.99,-471.56 304.03,-451.44 401.97,-451.44 402.01,-471.56"/>
<text text-anchor="middle" x="353" y="-462.3" font-family="Times,serif" font-size="14.00">&#39;m&#39;, 4, 5</text>
</g>
<!-- nodeid815098286&#45;&gt;nodeid80479 -->
<!-- anond0e54&#45;&gt;nodeid815097972 -->
<g id="edge19" class="edge">
<title>anond0e54&#45;&gt;nodeid815097972</title>
<path fill="none" stroke="black" d="M148,-456.97C148,-448.58 148,-434.95 148,-422.6"/>
<polygon fill="black" stroke="black" points="151.5,-422.25 148,-412.25 144.5,-422.25 151.5,-422.25"/>
</g>
<!-- anond0e54&#45;&gt;nodeid80386 -->
<g id="edge20" class="edge">
<title>anond0e54&#45;&gt;nodeid80386</title>
<path fill="none" stroke="black" d="M157.09,-464.32C181.4,-462.08 249.04,-453.08 292,-420 316.19,-401.37 333.3,-370.21 343.13,-348.24"/>
<polygon fill="black" stroke="black" points="346.42,-349.44 347.13,-338.87 339.98,-346.7 346.42,-349.44"/>
</g>
<!-- nodeid513716952 -->
<g id="node15" class="node">
<title>nodeid513716952</title>
<path fill="none" stroke="black" d="M647.5,-556C647.5,-556 438.5,-556 438.5,-556 432.5,-556 426.5,-550 426.5,-544 426.5,-544 426.5,-532 426.5,-532 426.5,-526 432.5,-520 438.5,-520 438.5,-520 647.5,-520 647.5,-520 653.5,-520 659.5,-526 659.5,-532 659.5,-532 659.5,-544 659.5,-544 659.5,-550 653.5,-556 647.5,-556"/>
<text text-anchor="middle" x="543" y="-534.3" font-family="Times,serif" font-size="14.00">floor&#45;wax ⇒ &#39;S&#39; &#39;h&#39; &#39;i&#39; &#39;m&#39; • &#39;m&#39; &#39;e&#39; &#39;r&#39;, 0, 4</text>
</g>
<!-- anond0e64 -->
<g id="node16" class="node">
<title>anond0e64</title>
<ellipse fill="none" stroke="black" cx="543" cy="-466" rx="9" ry="9"/>
</g>
<!-- nodeid513716952&#45;&gt;anond0e64 -->
<g id="edge21" class="edge">
<title>nodeid513716952&#45;&gt;anond0e64</title>
<path fill="none" stroke="black" d="M543,-519.7C543,-509.23 543,-495.9 543,-485.27"/>
<polygon fill="black" stroke="black" points="546.5,-485.05 543,-475.05 539.5,-485.05 546.5,-485.05"/>
</g>
<!-- nodeid513716952&#45;&gt;nodeid80479 -->
<!-- anond0e64&#45;&gt;nodeid513716638 -->
<g id="edge23" class="edge">
<title>anond0e64&#45;&gt;nodeid513716638</title>
<path fill="none" stroke="black" d="M543,-456.97C543,-448.58 543,-434.95 543,-422.6"/>
<polygon fill="black" stroke="black" points="546.5,-422.25 543,-412.25 539.5,-422.25 546.5,-422.25"/>
</g>
<!-- anond0e64&#45;&gt;nodeid80386 -->
<g id="edge24" class="edge">
<title>anond0e64&#45;&gt;nodeid80386</title>
<path fill="none" stroke="black" d="M534.21,-463.96C511.88,-460.93 452.04,-450.29 414,-420 390.11,-400.98 372.94,-369.9 363.02,-348.05"/>
<polygon fill="black" stroke="black" points="366.17,-346.52 358.97,-338.74 359.75,-349.31 366.17,-346.52"/>
</g>
<!-- nodeid815098600 -->
<g id="node18" class="node">
<title>nodeid815098600</title>
<path fill="none" stroke="black" d="M267.5,-700C267.5,-700 28.5,-700 28.5,-700 22.5,-700 16.5,-694 16.5,-688 16.5,-688 16.5,-676 16.5,-676 16.5,-670 22.5,-664 28.5,-664 28.5,-664 267.5,-664 267.5,-664 273.5,-664 279.5,-670 279.5,-676 279.5,-676 279.5,-688 279.5,-688 279.5,-694 273.5,-700 267.5,-700"/>
<text text-anchor="middle" x="148" y="-678.3" font-family="Times,serif" font-size="14.00">dessert&#45;topping ⇒ &#39;S&#39; &#39;h&#39; &#39;i&#39; &#39;m&#39; &#39;m&#39; • &#39;e&#39; &#39;r&#39;, 0, 5</text>
</g>
<!-- anond0e77 -->
<g id="node19" class="node">
<title>anond0e77</title>
<ellipse fill="none" stroke="black" cx="148" cy="-610" rx="9" ry="9"/>
</g>
<!-- nodeid815098600&#45;&gt;anond0e77 -->
<g id="edge25" class="edge">
<title>nodeid815098600&#45;&gt;anond0e77</title>
<path fill="none" stroke="black" d="M148,-663.7C148,-653.23 148,-639.9 148,-629.27"/>
<polygon fill="black" stroke="black" points="151.5,-629.05 148,-619.05 144.5,-629.05 151.5,-629.05"/>
</g>
<!-- nodeid79780 -->
<g id="node22" class="node">
<title>nodeid79780</title>
<polygon fill="none" stroke="black" points="393.98,-615.56 349,-628 304.02,-615.56 304.06,-595.44 393.94,-595.44 393.98,-615.56"/>
<text text-anchor="middle" x="349" y="-606.3" font-family="Times,serif" font-size="14.00">&#39;e&#39;, 5, 6</text>
</g>
<!-- nodeid815098600&#45;&gt;nodeid79780 -->
<!-- anond0e77&#45;&gt;nodeid815098286 -->
<g id="edge27" class="edge">
<title>anond0e77&#45;&gt;nodeid815098286</title>
<path fill="none" stroke="black" d="M148,-600.97C148,-592.58 148,-578.95 148,-566.6"/>
<polygon fill="black" stroke="black" points="151.5,-566.25 148,-556.25 144.5,-566.25 151.5,-566.25"/>
</g>
<!-- anond0e77&#45;&gt;nodeid80479 -->
<g id="edge28" class="edge">
<title>anond0e77&#45;&gt;nodeid80479</title>
<path fill="none" stroke="black" d="M157.09,-608.32C181.4,-606.08 249.04,-597.08 292,-564 316.19,-545.37 333.3,-514.21 343.13,-492.24"/>
<polygon fill="black" stroke="black" points="346.42,-493.44 347.13,-482.87 339.98,-490.7 346.42,-493.44"/>
</g>
<!-- nodeid513717266 -->
<g id="node20" class="node">
<title>nodeid513717266</title>
<path fill="none" stroke="black" d="M639.5,-700C639.5,-700 430.5,-700 430.5,-700 424.5,-700 418.5,-694 418.5,-688 418.5,-688 418.5,-676 418.5,-676 418.5,-670 424.5,-664 430.5,-664 430.5,-664 639.5,-664 639.5,-664 645.5,-664 651.5,-670 651.5,-676 651.5,-676 651.5,-688 651.5,-688 651.5,-694 645.5,-700 639.5,-700"/>
<text text-anchor="middle" x="535" y="-678.3" font-family="Times,serif" font-size="14.00">floor&#45;wax ⇒ &#39;S&#39; &#39;h&#39; &#39;i&#39; &#39;m&#39; &#39;m&#39; • &#39;e&#39; &#39;r&#39;, 0, 5</text>
</g>
<!-- anond0e87 -->
<g id="node21" class="node">
<title>anond0e87</title>
<ellipse fill="none" stroke="black" cx="535" cy="-610" rx="9" ry="9"/>
</g>
<!-- nodeid513717266&#45;&gt;anond0e87 -->
<g id="edge29" class="edge">
<title>nodeid513717266&#45;&gt;anond0e87</title>
<path fill="none" stroke="black" d="M535,-663.7C535,-653.23 535,-639.9 535,-629.27"/>
<polygon fill="black" stroke="black" points="538.5,-629.05 535,-619.05 531.5,-629.05 538.5,-629.05"/>
</g>
<!-- nodeid513717266&#45;&gt;nodeid79780 -->
<!-- anond0e87&#45;&gt;nodeid513716952 -->
<g id="edge31" class="edge">
<title>anond0e87&#45;&gt;nodeid513716952</title>
<path fill="none" stroke="black" d="M535.92,-600.97C536.89,-592.5 538.47,-578.67 539.89,-566.23"/>
<polygon fill="black" stroke="black" points="543.37,-566.58 541.03,-556.25 536.42,-565.79 543.37,-566.58"/>
</g>
<!-- anond0e87&#45;&gt;nodeid80479 -->
<g id="edge32" class="edge">
<title>anond0e87&#45;&gt;nodeid80479</title>
<path fill="none" stroke="black" d="M526.13,-607.7C504.7,-604.18 449.3,-592.71 414,-564 390.31,-544.73 373.1,-513.7 363.11,-491.94"/>
<polygon fill="black" stroke="black" points="366.27,-490.41 359.04,-482.66 359.86,-493.23 366.27,-490.41"/>
</g>
<!-- nodeid815098914 -->
<g id="node23" class="node">
<title>nodeid815098914</title>
<path fill="none" stroke="black" d="M267.5,-844C267.5,-844 28.5,-844 28.5,-844 22.5,-844 16.5,-838 16.5,-832 16.5,-832 16.5,-820 16.5,-820 16.5,-814 22.5,-808 28.5,-808 28.5,-808 267.5,-808 267.5,-808 273.5,-808 279.5,-814 279.5,-820 279.5,-820 279.5,-832 279.5,-832 279.5,-838 273.5,-844 267.5,-844"/>
<text text-anchor="middle" x="148" y="-822.3" font-family="Times,serif" font-size="14.00">dessert&#45;topping ⇒ &#39;S&#39; &#39;h&#39; &#39;i&#39; &#39;m&#39; &#39;m&#39; &#39;e&#39; • &#39;r&#39;, 0, 6</text>
</g>
<!-- anond0e99 -->
<g id="node24" class="node">
<title>anond0e99</title>
<ellipse fill="none" stroke="black" cx="148" cy="-754" rx="9" ry="9"/>
</g>
<!-- nodeid815098914&#45;&gt;anond0e99 -->
<g id="edge33" class="edge">
<title>nodeid815098914&#45;&gt;anond0e99</title>
<path fill="none" stroke="black" d="M148,-807.7C148,-797.23 148,-783.9 148,-773.27"/>
<polygon fill="black" stroke="black" points="151.5,-773.05 148,-763.05 144.5,-773.05 151.5,-773.05"/>
</g>
<!-- nodeid81160 -->
<g id="node27" class="node">
<title>nodeid81160</title>
<polygon fill="none" stroke="black" points="390.26,-759.56 347,-772 303.74,-759.56 303.78,-739.44 390.22,-739.44 390.26,-759.56"/>
<text text-anchor="middle" x="347" y="-750.3" font-family="Times,serif" font-size="14.00">&#39;r&#39;, 6, 7</text>
</g>
<!-- nodeid815098914&#45;&gt;nodeid81160 -->
<!-- anond0e99&#45;&gt;nodeid815098600 -->
<g id="edge35" class="edge">
<title>anond0e99&#45;&gt;nodeid815098600</title>
<path fill="none" stroke="black" d="M148,-744.97C148,-736.58 148,-722.95 148,-710.6"/>
<polygon fill="black" stroke="black" points="151.5,-710.25 148,-700.25 144.5,-710.25 151.5,-710.25"/>
</g>
<!-- anond0e99&#45;&gt;nodeid79780 -->
<g id="edge36" class="edge">
<title>anond0e99&#45;&gt;nodeid79780</title>
<path fill="none" stroke="black" d="M157.14,-752.39C181.6,-750.33 249.54,-741.72 292,-708 315.48,-689.35 331.29,-658.2 340.19,-636.23"/>
<polygon fill="black" stroke="black" points="343.47,-637.46 343.8,-626.87 336.94,-634.94 343.47,-637.46"/>
</g>
<!-- nodeid513717580 -->
<g id="node25" class="node">
<title>nodeid513717580</title>
<path fill="none" stroke="black" d="M635.5,-844C635.5,-844 426.5,-844 426.5,-844 420.5,-844 414.5,-838 414.5,-832 414.5,-832 414.5,-820 414.5,-820 414.5,-814 420.5,-808 426.5,-808 426.5,-808 635.5,-808 635.5,-808 641.5,-808 647.5,-814 647.5,-820 647.5,-820 647.5,-832 647.5,-832 647.5,-838 641.5,-844 635.5,-844"/>
<text text-anchor="middle" x="531" y="-822.3" font-family="Times,serif" font-size="14.00">floor&#45;wax ⇒ &#39;S&#39; &#39;h&#39; &#39;i&#39; &#39;m&#39; &#39;m&#39; &#39;e&#39; • &#39;r&#39;, 0, 6</text>
</g>
<!-- anond0e109 -->
<g id="node26" class="node">
<title>anond0e109</title>
<ellipse fill="none" stroke="black" cx="531" cy="-754" rx="9" ry="9"/>
</g>
<!-- nodeid513717580&#45;&gt;anond0e109 -->
<g id="edge37" class="edge">
<title>nodeid513717580&#45;&gt;anond0e109</title>
<path fill="none" stroke="black" d="M531,-807.7C531,-797.23 531,-783.9 531,-773.27"/>
<polygon fill="black" stroke="black" points="534.5,-773.05 531,-763.05 527.5,-773.05 534.5,-773.05"/>
</g>
<!-- nodeid513717580&#45;&gt;nodeid81160 -->
<!-- anond0e109&#45;&gt;nodeid513717266 -->
<g id="edge39" class="edge">
<title>anond0e109&#45;&gt;nodeid513717266</title>
<path fill="none" stroke="black" d="M531.46,-744.97C531.94,-736.58 532.72,-722.95 533.42,-710.6"/>
<polygon fill="black" stroke="black" points="536.94,-710.43 534.01,-700.25 529.95,-710.03 536.94,-710.43"/>
</g>
<!-- anond0e109&#45;&gt;nodeid79780 -->
<g id="edge40" class="edge">
<title>anond0e109&#45;&gt;nodeid79780</title>
<path fill="none" stroke="black" d="M522.11,-751.9C500.09,-748.78 442.21,-738.04 406,-708 383.03,-688.94 367.17,-658.08 358.12,-636.29"/>
<polygon fill="black" stroke="black" points="361.26,-634.72 354.33,-626.7 354.75,-637.29 361.26,-634.72"/>
</g>
<!-- nodeid254313084 -->
<g id="node28" class="node">
<title>nodeid254313084</title>
<ellipse fill="none" stroke="black" cx="261" cy="-952" rx="83.39" ry="18"/>
<text text-anchor="middle" x="261" y="-948.3" font-family="Times,serif" font-size="14.00">dessert&#45;topping, 0, 7</text>
</g>
<!-- anond0e122 -->
<g id="node29" class="node">
<title>anond0e122</title>
<ellipse fill="none" stroke="black" cx="261" cy="-889" rx="9" ry="9"/>
</g>
<!-- nodeid254313084&#45;&gt;anond0e122 -->
<g id="edge41" class="edge">
<title>nodeid254313084&#45;&gt;anond0e122</title>
<path fill="none" stroke="black" d="M261,-933.68C261,-925.73 261,-916.31 261,-908.25"/>
<polygon fill="black" stroke="black" points="264.5,-908.06 261,-898.06 257.5,-908.06 264.5,-908.06"/>
</g>
<!-- anond0e122&#45;&gt;nodeid815098914 -->
<g id="edge43" class="edge">
<title>anond0e122&#45;&gt;nodeid815098914</title>
<path fill="none" stroke="black" d="M253.23,-883.81C240.01,-876.67 212.27,-861.69 188.58,-848.91"/>
<polygon fill="black" stroke="black" points="190.21,-845.81 179.74,-844.14 186.88,-851.97 190.21,-845.81"/>
</g>
<!-- anond0e122&#45;&gt;nodeid81160 -->
<g id="edge44" class="edge">
<title>anond0e122&#45;&gt;nodeid81160</title>
<path fill="none" stroke="black" d="M266.88,-881.93C273.42,-875.01 284.12,-863.2 292,-852 308.66,-828.33 324.62,-799.22 335.02,-779.09"/>
<polygon fill="black" stroke="black" points="338.23,-780.5 339.65,-770 331.99,-777.32 338.23,-780.5"/>
</g>
<!-- nodeid_1110833737 -->
<g id="node30" class="node">
<title>nodeid_1110833737</title>
<ellipse fill="none" stroke="black" cx="432" cy="-952" rx="63.89" ry="18"/>
<text text-anchor="middle" x="432" y="-948.3" font-family="Times,serif" font-size="14.00">floor&#45;wax, 0, 7</text>
</g>
<!-- anond0e132 -->
<g id="node31" class="node">
<title>anond0e132</title>
<ellipse fill="none" stroke="black" cx="432" cy="-889" rx="9" ry="9"/>
</g>
<!-- nodeid_1110833737&#45;&gt;anond0e132 -->
<g id="edge45" class="edge">
<title>nodeid_1110833737&#45;&gt;anond0e132</title>
<path fill="none" stroke="black" d="M432,-933.68C432,-925.73 432,-916.31 432,-908.25"/>
<polygon fill="black" stroke="black" points="435.5,-908.06 432,-898.06 428.5,-908.06 435.5,-908.06"/>
</g>
<!-- anond0e132&#45;&gt;nodeid513717580 -->
<g id="edge47" class="edge">
<title>anond0e132&#45;&gt;nodeid513717580</title>
<path fill="none" stroke="black" d="M439.44,-883.42C451.11,-876.22 474.49,-861.82 494.69,-849.37"/>
<polygon fill="black" stroke="black" points="496.73,-852.23 503.41,-844 493.06,-846.27 496.73,-852.23"/>
</g>
<!-- anond0e132&#45;&gt;nodeid81160 -->
<g id="edge48" class="edge">
<title>anond0e132&#45;&gt;nodeid81160</title>
<path fill="none" stroke="black" d="M426.33,-881.9C420.02,-874.95 409.68,-863.11 402,-852 385.53,-828.19 369.53,-799.1 359.08,-779.03"/>
<polygon fill="black" stroke="black" points="362.1,-777.25 354.41,-769.95 355.88,-780.45 362.1,-777.25"/>
</g>
<!-- nodeid_2122757809 -->
<g id="node32" class="node">
<title>nodeid_2122757809</title>
<ellipse fill="none" stroke="black" cx="270" cy="-1024" rx="55.79" ry="18"/>
<text text-anchor="middle" x="270" y="-1020.3" font-family="Times,serif" font-size="14.00">product, 0, 7</text>
</g>
<!-- nodeid_2122757809&#45;&gt;nodeid254313084 -->
<g id="edge49" class="edge">
<title>nodeid_2122757809&#45;&gt;nodeid254313084</title>
<path fill="none" stroke="black" d="M267.78,-1005.7C266.78,-997.98 265.59,-988.71 264.49,-980.11"/>
<polygon fill="black" stroke="black" points="267.95,-979.58 263.2,-970.1 261,-980.47 267.95,-979.58"/>
</g>
<!-- nodeid1870828153 -->
<g id="node33" class="node">
<title>nodeid1870828153</title>
<ellipse fill="none" stroke="black" cx="423" cy="-1024" rx="55.79" ry="18"/>
<text text-anchor="middle" x="423" y="-1020.3" font-family="Times,serif" font-size="14.00">product, 0, 7</text>
</g>
<!-- nodeid1870828153&#45;&gt;nodeid_1110833737 -->
<g id="edge50" class="edge">
<title>nodeid1870828153&#45;&gt;nodeid_1110833737</title>
<path fill="none" stroke="black" d="M425.22,-1005.7C426.22,-997.98 427.41,-988.71 428.51,-980.11"/>
<polygon fill="black" stroke="black" points="432,-980.47 429.8,-970.1 425.05,-979.58 432,-980.47"/>
</g>
<!-- nodeid1827523986 -->
<g id="node34" class="node">
<title>nodeid1827523986</title>
<ellipse fill="none" stroke="black" cx="346" cy="-1096" rx="38.19" ry="18"/>
<text text-anchor="middle" x="346" y="-1092.3" font-family="Times,serif" font-size="14.00">$$, 0, 7</text>
</g>
<!-- nodeid1827523986&#45;&gt;nodeid_2122757809 -->
<g id="edge51" class="edge">
<title>nodeid1827523986&#45;&gt;nodeid_2122757809</title>
<path fill="none" stroke="black" d="M329.13,-1079.46C319.11,-1070.24 306.22,-1058.36 295.03,-1048.05"/>
<polygon fill="black" stroke="black" points="297.34,-1045.42 287.61,-1041.22 292.6,-1050.57 297.34,-1045.42"/>
</g>
<!-- nodeid1827523986&#45;&gt;nodeid1870828153 -->
<g id="edge52" class="edge">
<title>nodeid1827523986&#45;&gt;nodeid1870828153</title>
<path fill="none" stroke="black" d="M363.09,-1079.46C373.24,-1070.24 386.3,-1058.36 397.64,-1048.05"/>
<polygon fill="black" stroke="black" points="400.11,-1050.54 405.16,-1041.22 395.4,-1045.36 400.11,-1050.54"/>
</g>
</g>
</svg>
