<?xml version="1.0" encoding="UTF-8" standalone="no"?>
<!DOCTYPE svg PUBLIC "-//W3C//DTD SVG 1.1//EN"
 "http://www.w3.org/Graphics/SVG/1.1/DTD/svg11.dtd">
<!-- Generated by graphviz version 8.0.5 (20230430.1635)
 -->
<!-- Title: SPPF Pages: 1 -->
<svg width="644pt" height="1446pt"
 viewBox="0.00 0.00 644.00 1446.42" xmlns="http://www.w3.org/2000/svg" xmlns:xlink="http://www.w3.org/1999/xlink">
<g id="graph0" class="graph" transform="scale(1 1) rotate(0) translate(4 1442.42)">
<title>SPPF</title>
<polygon fill="white" stroke="none" points="-4,4 -4,-1442.42 640,-1442.42 640,4 -4,4"/>
<g id="clust1" class="cluster">
<title>cluster_id2386</title>
<polygon fill="white" stroke="white" points="292,-113.05 292,-198.1 386,-198.1 386,-113.05 292,-113.05"/>
</g>
<g id="clust7" class="cluster">
<title>cluster_id2390</title>
<polygon fill="white" stroke="white" points="290,-218.1 290,-303.15 384,-303.15 384,-218.1 290,-218.1"/>
</g>
<g id="clust2" class="cluster">
<title>cluster_id2387</title>
<polygon fill="white" stroke="white" points="292,-8 292,-93.05 386,-93.05 386,-8 292,-8"/>
</g>
<g id="clust3" class="cluster">
<title>cluster_id2388</title>
<polygon fill="white" stroke="white" points="8,-243.62 8,-378.65 282,-378.65 282,-243.62 8,-243.62"/>
</g>
<g id="clust5" class="cluster">
<title>cluster_id2389</title>
<polygon fill="white" stroke="white" points="392,-243.62 392,-378.65 628,-378.65 628,-243.62 392,-243.62"/>
</g>
<g id="clust8" class="cluster">
<title>cluster_id2391</title>
<polygon fill="white" stroke="white" points="8,-424.17 8,-559.19 282,-559.19 282,-424.17 8,-424.17"/>
</g>
<g id="clust10" class="cluster">
<title>cluster_id2392</title>
<polygon fill="white" stroke="white" points="392,-424.17 392,-559.19 628,-559.19 628,-424.17 392,-424.17"/>
</g>
<g id="clust12" class="cluster">
<title>cluster_id2393</title>
<polygon fill="white" stroke="white" points="290,-398.65 290,-483.69 384,-483.69 384,-398.65 290,-398.65"/>
</g>
<g id="clust13" class="cluster">
<title>cluster_id2394</title>
<polygon fill="white" stroke="white" points="8,-604.72 8,-739.74 282,-739.74 282,-604.72 8,-604.72"/>
</g>
<g id="clust15" class="cluster">
<title>cluster_id2395</title>
<polygon fill="white" stroke="white" points="392,-604.72 392,-739.74 628,-739.74 628,-604.72 392,-604.72"/>
</g>
<g id="clust17" class="cluster">
<title>cluster_id2396</title>
<polygon fill="white" stroke="white" points="290,-579.19 290,-664.24 384,-664.24 384,-579.19 290,-579.19"/>
</g>
<g id="clust18" class="cluster">
<title>cluster_id2397</title>
<polygon fill="white" stroke="white" points="8,-785.27 8,-920.29 282,-920.29 282,-785.27 8,-785.27"/>
</g>
<g id="clust20" class="cluster">
<title>cluster_id2398</title>
<polygon fill="white" stroke="white" points="392,-785.27 392,-920.29 628,-920.29 628,-785.27 392,-785.27"/>
</g>
<g id="clust22" class="cluster">
<title>cluster_id2399</title>
<polygon fill="white" stroke="white" points="290,-759.74 290,-844.79 384,-844.79 384,-759.74 290,-759.74"/>
</g>
<g id="clust23" class="cluster">
<title>cluster_id2400</title>
<polygon fill="white" stroke="white" points="8,-965.82 8,-1100.84 282,-1100.84 282,-965.82 8,-965.82"/>
</g>
<g id="clust25" class="cluster">
<title>cluster_id2401</title>
<polygon fill="white" stroke="white" points="392,-965.82 392,-1100.84 628,-1100.84 628,-965.82 392,-965.82"/>
</g>
<g id="clust27" class="cluster">
<title>cluster_id2402</title>
<polygon fill="white" stroke="white" points="290,-940.29 290,-1025.34 384,-1025.34 384,-940.29 290,-940.29"/>
</g>
<g id="clust28" class="cluster">
<title>cluster_id2403</title>
<polygon fill="white" stroke="white" points="180,-1120.84 180,-1246.7 350,-1246.7 350,-1120.84 180,-1120.84"/>
</g>
<g id="clust30" class="cluster">
<title>cluster_id2404</title>
<polygon fill="white" stroke="white" points="358,-1120.84 358,-1246.7 474,-1246.7 474,-1120.84 358,-1120.84"/>
</g>
<g id="clust32" class="cluster">
<title>cluster_id2405</title>
<polygon fill="white" stroke="white" points="273,-1266.7 273,-1338.56 407,-1338.56 407,-1266.7 273,-1266.7"/>
</g>
<g id="clust33" class="cluster">
<title>cluster_id2406</title>
<polygon fill="white" stroke="white" points="286,-1358.56 286,-1430.42 394,-1430.42 394,-1358.56 286,-1358.56"/>
</g>
<!-- nodeid2386 -->
<g id="node1" class="node">
<title>nodeid2386</title>
<polygon fill="none" stroke="#d55e00" stroke-width="3" points="377.89,-166.24 339,-190.1 300.11,-166.24 300.14,-127.64 377.86,-127.64 377.89,-166.24"/>
<text text-anchor="start" x="331.5" y="-158.02" font-family="Arial" font-size="14.00">&#39;S&#39;</text>
<text text-anchor="start" x="324.75" y="-142.27" font-family="Arial" font-size="14.00">« 1 »</text>
</g>
<!-- nodeid2387 -->
<g id="node2" class="node">
<title>nodeid2387</title>
<polygon fill="none" stroke="#d55e00" stroke-width="3" points="377.89,-61.19 339,-85.05 300.11,-61.19 300.14,-22.59 377.86,-22.59 377.89,-61.19"/>
<text text-anchor="start" x="332.25" y="-52.97" font-family="Arial" font-size="14.00">&#39;h&#39;</text>
<text text-anchor="start" x="324.75" y="-37.22" font-family="Arial" font-size="14.00">« 2 »</text>
</g>
<!-- nodeid2386&#45;&gt;nodeid2387 -->
<!-- nodeid2386&#45;&gt;nodeid2387 -->
<!-- nodeid2388 -->
<g id="node3" class="node">
<title>nodeid2388</title>
<path fill="none" stroke="black" d="M262.12,-370.65C262.12,-370.65 27.88,-370.65 27.88,-370.65 21.88,-370.65 15.88,-364.65 15.88,-358.65 15.88,-358.65 15.88,-343.15 15.88,-343.15 15.88,-337.15 21.88,-331.15 27.88,-331.15 27.88,-331.15 262.12,-331.15 262.12,-331.15 268.12,-331.15 274.12,-337.15 274.12,-343.15 274.12,-343.15 274.12,-358.65 274.12,-358.65 274.12,-364.65 268.12,-370.65 262.12,-370.65"/>
<text text-anchor="start" x="23.88" y="-353.35" font-family="Arial" font-size="14.00">dessert&#45;topping ⇒ &#39;S&#39; &#39;h&#39; • &#39;i&#39; &#39;m&#39; &#39;m&#39; &#39;e&#39; &#39;r&#39;</text>
<text text-anchor="start" x="120.25" y="-337.6" font-family="Arial" font-size="14.00">« 1 – 3 »</text>
</g>
<!-- anond1e9 -->
<g id="node4" class="node">
<title>anond1e9</title>
<ellipse fill="none" stroke="black" cx="265" cy="-260.62" rx="9" ry="9"/>
</g>
<!-- nodeid2388&#45;&gt;anond1e9 -->
<g id="edge1" class="edge">
<title>nodeid2388&#45;&gt;anond1e9</title>
<path fill="none" stroke="black" d="M171.04,-330.74C194.86,-313.22 229.34,-287.86 249.23,-273.22"/>
<polygon fill="black" stroke="black" points="250.96,-275.56 256.94,-266.82 246.81,-269.92 250.96,-275.56"/>
</g>
<!-- nodeid2390 -->
<g id="node7" class="node">
<title>nodeid2390</title>
<polygon fill="none" stroke="#d55e00" stroke-width="3" points="375.89,-271.29 337,-295.15 298.11,-271.29 298.14,-232.69 375.86,-232.69 375.89,-271.29"/>
<text text-anchor="start" x="332.5" y="-263.07" font-family="Arial" font-size="14.00">&#39;i&#39;</text>
<text text-anchor="start" x="322.75" y="-247.32" font-family="Arial" font-size="14.00">« 3 »</text>
</g>
<!-- nodeid2388&#45;&gt;nodeid2390 -->
<!-- anond1e9&#45;&gt;nodeid2386 -->
<g id="edge3" class="edge">
<title>anond1e9&#45;&gt;nodeid2386</title>
<path fill="none" stroke="black" d="M268.2,-251.97C271.93,-243.39 278.54,-229.24 286,-218.1 293.22,-207.31 302.09,-196.33 310.51,-186.69"/>
<polygon fill="black" stroke="black" points="312.68,-189.39 316.73,-179.59 307.46,-184.73 312.68,-189.39"/>
</g>
<!-- anond1e9&#45;&gt;nodeid2387 -->
<g id="edge4" class="edge">
<title>anond1e9&#45;&gt;nodeid2387</title>
<path fill="none" stroke="black" d="M264.8,-251.25C264.55,-228.12 265.96,-161.88 288,-113.05 293.21,-101.51 301.18,-90.38 309.29,-80.83"/>
<polygon fill="black" stroke="black" points="311.34,-83.67 315.39,-73.88 306.12,-79.01 311.34,-83.67"/>
</g>
<!-- nodeid2389 -->
<g id="node5" class="node">
<title>nodeid2389</title>
<path fill="none" stroke="black" d="M608,-370.65C608,-370.65 412,-370.65 412,-370.65 406,-370.65 400,-364.65 400,-358.65 400,-358.65 400,-343.15 400,-343.15 400,-337.15 406,-331.15 412,-331.15 412,-331.15 608,-331.15 608,-331.15 614,-331.15 620,-337.15 620,-343.15 620,-343.15 620,-358.65 620,-358.65 620,-364.65 614,-370.65 608,-370.65"/>
<text text-anchor="start" x="408" y="-353.35" font-family="Arial" font-size="14.00">floor&#45;wax ⇒ &#39;S&#39; &#39;h&#39; • &#39;i&#39; &#39;m&#39; &#39;m&#39; &#39;e&#39; &#39;r&#39;</text>
<text text-anchor="start" x="485.25" y="-337.6" font-family="Arial" font-size="14.00">« 1 – 3 »</text>
</g>
<!-- anond1e19 -->
<g id="node6" class="node">
<title>anond1e19</title>
<ellipse fill="none" stroke="black" cx="409" cy="-260.62" rx="9" ry="9"/>
</g>
<!-- nodeid2389&#45;&gt;anond1e19 -->
<g id="edge5" class="edge">
<title>nodeid2389&#45;&gt;anond1e19</title>
<path fill="none" stroke="black" d="M488.08,-330.74C468.5,-313.63 440.37,-289.04 423.47,-274.27"/>
<polygon fill="black" stroke="black" points="426.2,-271.13 416.37,-267.19 421.59,-276.4 426.2,-271.13"/>
</g>
<!-- nodeid2389&#45;&gt;nodeid2390 -->
<!-- anond1e19&#45;&gt;nodeid2386 -->
<g id="edge7" class="edge">
<title>anond1e19&#45;&gt;nodeid2386</title>
<path fill="none" stroke="black" d="M405.72,-252.02C401.92,-243.49 395.24,-229.38 388,-218.1 381.4,-207.8 373.41,-197.18 365.83,-187.72"/>
<polygon fill="black" stroke="black" points="368.06,-185.92 359.02,-180.4 362.64,-190.35 368.06,-185.92"/>
</g>
<!-- anond1e19&#45;&gt;nodeid2387 -->
<g id="edge8" class="edge">
<title>anond1e19&#45;&gt;nodeid2387</title>
<path fill="none" stroke="black" d="M409.49,-251.26C410.53,-228.16 411.3,-161.99 390,-113.05 384.95,-101.44 377.01,-90.29 368.9,-80.74"/>
<polygon fill="black" stroke="black" points="372.06,-78.91 362.79,-73.8 366.85,-83.58 372.06,-78.91"/>
</g>
<!-- nodeid2391 -->
<g id="node8" class="node">
<title>nodeid2391</title>
<path fill="none" stroke="black" d="M262.12,-551.19C262.12,-551.19 27.88,-551.19 27.88,-551.19 21.88,-551.19 15.88,-545.19 15.88,-539.19 15.88,-539.19 15.88,-523.69 15.88,-523.69 15.88,-517.69 21.88,-511.69 27.88,-511.69 27.88,-511.69 262.12,-511.69 262.12,-511.69 268.12,-511.69 274.12,-517.69 274.12,-523.69 274.12,-523.69 274.12,-539.19 274.12,-539.19 274.12,-545.19 268.12,-551.19 262.12,-551.19"/>
<text text-anchor="start" x="23.88" y="-533.89" font-family="Arial" font-size="14.00">dessert&#45;topping ⇒ &#39;S&#39; &#39;h&#39; &#39;i&#39; • &#39;m&#39; &#39;m&#39; &#39;e&#39; &#39;r&#39;</text>
<text text-anchor="start" x="120.25" y="-518.14" font-family="Arial" font-size="14.00">« 1 – 4 »</text>
</g>
<!-- anond1e32 -->
<g id="node9" class="node">
<title>anond1e32</title>
<ellipse fill="none" stroke="black" cx="145" cy="-441.17" rx="9" ry="9"/>
</g>
<!-- nodeid2391&#45;&gt;anond1e32 -->
<g id="edge9" class="edge">
<title>nodeid2391&#45;&gt;anond1e32</title>
<path fill="none" stroke="black" d="M145,-511.29C145,-496.55 145,-476.28 145,-461.5"/>
<polygon fill="black" stroke="black" points="148.5,-461.62 145,-451.62 141.5,-461.62 148.5,-461.62"/>
</g>
<!-- nodeid2393 -->
<g id="node12" class="node">
<title>nodeid2393</title>
<polygon fill="none" stroke="#d55e00" stroke-width="3" points="375.89,-451.84 337,-475.69 298.11,-451.84 298.14,-413.24 375.86,-413.24 375.89,-451.84"/>
<text text-anchor="start" x="328" y="-443.62" font-family="Arial" font-size="14.00">&#39;m&#39;</text>
<text text-anchor="start" x="322.75" y="-427.87" font-family="Arial" font-size="14.00">« 4 »</text>
</g>
<!-- nodeid2391&#45;&gt;nodeid2393 -->
<!-- anond1e32&#45;&gt;nodeid2388 -->
<g id="edge11" class="edge">
<title>anond1e32&#45;&gt;nodeid2388</title>
<path fill="none" stroke="black" d="M145,-431.71C145,-420.31 145,-399.43 145,-381.88"/>
<polygon fill="black" stroke="black" points="148.5,-381.97 145,-371.97 141.5,-381.97 148.5,-381.97"/>
</g>
<!-- anond1e32&#45;&gt;nodeid2390 -->
<g id="edge12" class="edge">
<title>anond1e32&#45;&gt;nodeid2390</title>
<path fill="none" stroke="black" d="M153.87,-438.64C178.19,-434 246.73,-417.94 286,-378.65 306.61,-358.03 319.5,-327.7 327.17,-303.09"/>
<polygon fill="black" stroke="black" points="330.79,-304.17 330.24,-293.59 324.07,-302.2 330.79,-304.17"/>
</g>
<!-- nodeid2392 -->
<g id="node10" class="node">
<title>nodeid2392</title>
<path fill="none" stroke="black" d="M608,-551.19C608,-551.19 412,-551.19 412,-551.19 406,-551.19 400,-545.19 400,-539.19 400,-539.19 400,-523.69 400,-523.69 400,-517.69 406,-511.69 412,-511.69 412,-511.69 608,-511.69 608,-511.69 614,-511.69 620,-517.69 620,-523.69 620,-523.69 620,-539.19 620,-539.19 620,-545.19 614,-551.19 608,-551.19"/>
<text text-anchor="start" x="408" y="-533.89" font-family="Arial" font-size="14.00">floor&#45;wax ⇒ &#39;S&#39; &#39;h&#39; &#39;i&#39; • &#39;m&#39; &#39;m&#39; &#39;e&#39; &#39;r&#39;</text>
<text text-anchor="start" x="485.25" y="-518.14" font-family="Arial" font-size="14.00">« 1 – 4 »</text>
</g>
<!-- anond1e42 -->
<g id="node11" class="node">
<title>anond1e42</title>
<ellipse fill="none" stroke="black" cx="510" cy="-441.17" rx="9" ry="9"/>
</g>
<!-- nodeid2392&#45;&gt;anond1e42 -->
<g id="edge13" class="edge">
<title>nodeid2392&#45;&gt;anond1e42</title>
<path fill="none" stroke="black" d="M510,-511.29C510,-496.55 510,-476.28 510,-461.5"/>
<polygon fill="black" stroke="black" points="513.5,-461.62 510,-451.62 506.5,-461.62 513.5,-461.62"/>
</g>
<!-- nodeid2392&#45;&gt;nodeid2393 -->
<!-- anond1e42&#45;&gt;nodeid2389 -->
<g id="edge15" class="edge">
<title>anond1e42&#45;&gt;nodeid2389</title>
<path fill="none" stroke="black" d="M510,-431.71C510,-420.31 510,-399.43 510,-381.88"/>
<polygon fill="black" stroke="black" points="513.5,-381.97 510,-371.97 506.5,-381.97 513.5,-381.97"/>
</g>
<!-- anond1e42&#45;&gt;nodeid2390 -->
<g id="edge16" class="edge">
<title>anond1e42&#45;&gt;nodeid2390</title>
<path fill="none" stroke="black" d="M501.38,-438.02C479.54,-432.18 421.41,-413.98 388,-378.65 367.97,-357.46 355.06,-327.15 347.24,-302.69"/>
<polygon fill="black" stroke="black" points="350.34,-301.82 344.1,-293.26 343.63,-303.84 350.34,-301.82"/>
</g>
<!-- nodeid2394 -->
<g id="node13" class="node">
<title>nodeid2394</title>
<path fill="none" stroke="black" d="M262.12,-731.74C262.12,-731.74 27.88,-731.74 27.88,-731.74 21.88,-731.74 15.88,-725.74 15.88,-719.74 15.88,-719.74 15.88,-704.24 15.88,-704.24 15.88,-698.24 21.88,-692.24 27.88,-692.24 27.88,-692.24 262.12,-692.24 262.12,-692.24 268.12,-692.24 274.12,-698.24 274.12,-704.24 274.12,-704.24 274.12,-719.74 274.12,-719.74 274.12,-725.74 268.12,-731.74 262.12,-731.74"/>
<text text-anchor="start" x="23.88" y="-714.44" font-family="Arial" font-size="14.00">dessert&#45;topping ⇒ &#39;S&#39; &#39;h&#39; &#39;i&#39; &#39;m&#39; • &#39;m&#39; &#39;e&#39; &#39;r&#39;</text>
<text text-anchor="start" x="120.25" y="-698.69" font-family="Arial" font-size="14.00">« 1 – 5 »</text>
</g>
<!-- anond1e54 -->
<g id="node14" class="node">
<title>anond1e54</title>
<ellipse fill="none" stroke="black" cx="145" cy="-621.72" rx="9" ry="9"/>
</g>
<!-- nodeid2394&#45;&gt;anond1e54 -->
<g id="edge17" class="edge">
<title>nodeid2394&#45;&gt;anond1e54</title>
<path fill="none" stroke="black" d="M145,-691.84C145,-677.1 145,-656.82 145,-642.04"/>
<polygon fill="black" stroke="black" points="148.5,-642.16 145,-632.16 141.5,-642.17 148.5,-642.16"/>
</g>
<!-- nodeid2396 -->
<g id="node17" class="node">
<title>nodeid2396</title>
<polygon fill="none" stroke="#d55e00" stroke-width="3" points="375.89,-632.39 337,-656.24 298.11,-632.39 298.14,-593.79 375.86,-593.79 375.89,-632.39"/>
<text text-anchor="start" x="328" y="-624.17" font-family="Arial" font-size="14.00">&#39;m&#39;</text>
<text text-anchor="start" x="322.75" y="-608.42" font-family="Arial" font-size="14.00">« 5 »</text>
</g>
<!-- nodeid2394&#45;&gt;nodeid2396 -->
<!-- anond1e54&#45;&gt;nodeid2391 -->
<g id="edge19" class="edge">
<title>anond1e54&#45;&gt;nodeid2391</title>
<path fill="none" stroke="black" d="M145,-612.25C145,-600.86 145,-579.98 145,-562.43"/>
<polygon fill="black" stroke="black" points="148.5,-562.52 145,-552.52 141.5,-562.52 148.5,-562.52"/>
</g>
<!-- anond1e54&#45;&gt;nodeid2393 -->
<g id="edge20" class="edge">
<title>anond1e54&#45;&gt;nodeid2393</title>
<path fill="none" stroke="black" d="M153.87,-619.18C178.19,-614.54 246.73,-598.48 286,-559.19 306.61,-538.58 319.5,-508.25 327.17,-483.64"/>
<polygon fill="black" stroke="black" points="330.79,-484.72 330.24,-474.14 324.07,-482.75 330.79,-484.72"/>
</g>
<!-- nodeid2395 -->
<g id="node15" class="node">
<title>nodeid2395</title>
<path fill="none" stroke="black" d="M608,-731.74C608,-731.74 412,-731.74 412,-731.74 406,-731.74 400,-725.74 400,-719.74 400,-719.74 400,-704.24 400,-704.24 400,-698.24 406,-692.24 412,-692.24 412,-692.24 608,-692.24 608,-692.24 614,-692.24 620,-698.24 620,-704.24 620,-704.24 620,-719.74 620,-719.74 620,-725.74 614,-731.74 608,-731.74"/>
<text text-anchor="start" x="408" y="-714.44" font-family="Arial" font-size="14.00">floor&#45;wax ⇒ &#39;S&#39; &#39;h&#39; &#39;i&#39; &#39;m&#39; • &#39;m&#39; &#39;e&#39; &#39;r&#39;</text>
<text text-anchor="start" x="485.25" y="-698.69" font-family="Arial" font-size="14.00">« 1 – 5 »</text>
</g>
<!-- anond1e64 -->
<g id="node16" class="node">
<title>anond1e64</title>
<ellipse fill="none" stroke="black" cx="510" cy="-621.72" rx="9" ry="9"/>
</g>
<!-- nodeid2395&#45;&gt;anond1e64 -->
<g id="edge21" class="edge">
<title>nodeid2395&#45;&gt;anond1e64</title>
<path fill="none" stroke="black" d="M510,-691.84C510,-677.1 510,-656.82 510,-642.04"/>
<polygon fill="black" stroke="black" points="513.5,-642.16 510,-632.16 506.5,-642.17 513.5,-642.16"/>
</g>
<!-- nodeid2395&#45;&gt;nodeid2396 -->
<!-- anond1e64&#45;&gt;nodeid2392 -->
<g id="edge23" class="edge">
<title>anond1e64&#45;&gt;nodeid2392</title>
<path fill="none" stroke="black" d="M510,-612.25C510,-600.86 510,-579.98 510,-562.43"/>
<polygon fill="black" stroke="black" points="513.5,-562.52 510,-552.52 506.5,-562.52 513.5,-562.52"/>
</g>
<!-- anond1e64&#45;&gt;nodeid2393 -->
<g id="edge24" class="edge">
<title>anond1e64&#45;&gt;nodeid2393</title>
<path fill="none" stroke="black" d="M501.38,-618.57C479.54,-612.73 421.41,-594.53 388,-559.19 367.97,-538.01 355.06,-507.7 347.24,-483.24"/>
<polygon fill="black" stroke="black" points="350.34,-482.37 344.1,-473.81 343.63,-484.39 350.34,-482.37"/>
</g>
<!-- nodeid2397 -->
<g id="node18" class="node">
<title>nodeid2397</title>
<path fill="none" stroke="black" d="M262.12,-912.29C262.12,-912.29 27.88,-912.29 27.88,-912.29 21.88,-912.29 15.88,-906.29 15.88,-900.29 15.88,-900.29 15.88,-884.79 15.88,-884.79 15.88,-878.79 21.88,-872.79 27.88,-872.79 27.88,-872.79 262.12,-872.79 262.12,-872.79 268.12,-872.79 274.12,-878.79 274.12,-884.79 274.12,-884.79 274.12,-900.29 274.12,-900.29 274.12,-906.29 268.12,-912.29 262.12,-912.29"/>
<text text-anchor="start" x="23.88" y="-894.99" font-family="Arial" font-size="14.00">dessert&#45;topping ⇒ &#39;S&#39; &#39;h&#39; &#39;i&#39; &#39;m&#39; &#39;m&#39; • &#39;e&#39; &#39;r&#39;</text>
<text text-anchor="start" x="120.25" y="-879.24" font-family="Arial" font-size="14.00">« 1 – 6 »</text>
</g>
<!-- anond1e77 -->
<g id="node19" class="node">
<title>anond1e77</title>
<ellipse fill="none" stroke="black" cx="145" cy="-802.27" rx="9" ry="9"/>
</g>
<!-- nodeid2397&#45;&gt;anond1e77 -->
<g id="edge25" class="edge">
<title>nodeid2397&#45;&gt;anond1e77</title>
<path fill="none" stroke="black" d="M145,-872.39C145,-857.65 145,-837.37 145,-822.59"/>
<polygon fill="black" stroke="black" points="148.5,-822.71 145,-812.71 141.5,-822.71 148.5,-822.71"/>
</g>
<!-- nodeid2399 -->
<g id="node22" class="node">
<title>nodeid2399</title>
<polygon fill="none" stroke="#d55e00" stroke-width="3" points="375.89,-812.94 337,-836.79 298.11,-812.94 298.14,-774.34 375.86,-774.34 375.89,-812.94"/>
<text text-anchor="start" x="330.25" y="-804.72" font-family="Arial" font-size="14.00">&#39;e&#39;</text>
<text text-anchor="start" x="322.75" y="-788.97" font-family="Arial" font-size="14.00">« 6 »</text>
</g>
<!-- nodeid2397&#45;&gt;nodeid2399 -->
<!-- anond1e77&#45;&gt;nodeid2394 -->
<g id="edge27" class="edge">
<title>anond1e77&#45;&gt;nodeid2394</title>
<path fill="none" stroke="black" d="M145,-792.8C145,-781.4 145,-760.53 145,-742.98"/>
<polygon fill="black" stroke="black" points="148.5,-743.07 145,-733.07 141.5,-743.07 148.5,-743.07"/>
</g>
<!-- anond1e77&#45;&gt;nodeid2396 -->
<g id="edge28" class="edge">
<title>anond1e77&#45;&gt;nodeid2396</title>
<path fill="none" stroke="black" d="M153.87,-799.73C178.19,-795.09 246.73,-779.03 286,-739.74 306.61,-719.13 319.5,-688.8 327.17,-664.19"/>
<polygon fill="black" stroke="black" points="330.79,-665.26 330.24,-654.68 324.07,-663.3 330.79,-665.26"/>
</g>
<!-- nodeid2398 -->
<g id="node20" class="node">
<title>nodeid2398</title>
<path fill="none" stroke="black" d="M608,-912.29C608,-912.29 412,-912.29 412,-912.29 406,-912.29 400,-906.29 400,-900.29 400,-900.29 400,-884.79 400,-884.79 400,-878.79 406,-872.79 412,-872.79 412,-872.79 608,-872.79 608,-872.79 614,-872.79 620,-878.79 620,-884.79 620,-884.79 620,-900.29 620,-900.29 620,-906.29 614,-912.29 608,-912.29"/>
<text text-anchor="start" x="408" y="-894.99" font-family="Arial" font-size="14.00">floor&#45;wax ⇒ &#39;S&#39; &#39;h&#39; &#39;i&#39; &#39;m&#39; &#39;m&#39; • &#39;e&#39; &#39;r&#39;</text>
<text text-anchor="start" x="485.25" y="-879.24" font-family="Arial" font-size="14.00">« 1 – 6 »</text>
</g>
<!-- anond1e87 -->
<g id="node21" class="node">
<title>anond1e87</title>
<ellipse fill="none" stroke="black" cx="510" cy="-802.27" rx="9" ry="9"/>
</g>
<!-- nodeid2398&#45;&gt;anond1e87 -->
<g id="edge29" class="edge">
<title>nodeid2398&#45;&gt;anond1e87</title>
<path fill="none" stroke="black" d="M510,-872.39C510,-857.65 510,-837.37 510,-822.59"/>
<polygon fill="black" stroke="black" points="513.5,-822.71 510,-812.71 506.5,-822.71 513.5,-822.71"/>
</g>
<!-- nodeid2398&#45;&gt;nodeid2399 -->
<!-- anond1e87&#45;&gt;nodeid2395 -->
<g id="edge31" class="edge">
<title>anond1e87&#45;&gt;nodeid2395</title>
<path fill="none" stroke="black" d="M510,-792.8C510,-781.4 510,-760.53 510,-742.98"/>
<polygon fill="black" stroke="black" points="513.5,-743.07 510,-733.07 506.5,-743.07 513.5,-743.07"/>
</g>
<!-- anond1e87&#45;&gt;nodeid2396 -->
<g id="edge32" class="edge">
<title>anond1e87&#45;&gt;nodeid2396</title>
<path fill="none" stroke="black" d="M501.38,-799.12C479.54,-793.27 421.41,-775.08 388,-739.74 367.97,-718.56 355.06,-688.25 347.24,-663.79"/>
<polygon fill="black" stroke="black" points="350.34,-662.92 344.1,-654.36 343.63,-664.94 350.34,-662.92"/>
</g>
<!-- nodeid2400 -->
<g id="node23" class="node">
<title>nodeid2400</title>
<path fill="none" stroke="black" d="M262.12,-1092.84C262.12,-1092.84 27.88,-1092.84 27.88,-1092.84 21.88,-1092.84 15.88,-1086.84 15.88,-1080.84 15.88,-1080.84 15.88,-1065.34 15.88,-1065.34 15.88,-1059.34 21.88,-1053.34 27.88,-1053.34 27.88,-1053.34 262.12,-1053.34 262.12,-1053.34 268.12,-1053.34 274.12,-1059.34 274.12,-1065.34 274.12,-1065.34 274.12,-1080.84 274.12,-1080.84 274.12,-1086.84 268.12,-1092.84 262.12,-1092.84"/>
<text text-anchor="start" x="23.88" y="-1075.54" font-family="Arial" font-size="14.00">dessert&#45;topping ⇒ &#39;S&#39; &#39;h&#39; &#39;i&#39; &#39;m&#39; &#39;m&#39; &#39;e&#39; • &#39;r&#39;</text>
<text text-anchor="start" x="120.25" y="-1059.79" font-family="Arial" font-size="14.00">« 1 – 7 »</text>
</g>
<!-- anond1e99 -->
<g id="node24" class="node">
<title>anond1e99</title>
<ellipse fill="none" stroke="black" cx="145" cy="-982.82" rx="9" ry="9"/>
</g>
<!-- nodeid2400&#45;&gt;anond1e99 -->
<g id="edge33" class="edge">
<title>nodeid2400&#45;&gt;anond1e99</title>
<path fill="none" stroke="black" d="M145,-1052.94C145,-1038.2 145,-1017.92 145,-1003.14"/>
<polygon fill="black" stroke="black" points="148.5,-1003.26 145,-993.26 141.5,-1003.26 148.5,-1003.26"/>
</g>
<!-- nodeid2402 -->
<g id="node27" class="node">
<title>nodeid2402</title>
<polygon fill="none" stroke="#d55e00" stroke-width="3" points="375.89,-993.48 337,-1017.34 298.11,-993.48 298.14,-954.88 375.86,-954.88 375.89,-993.48"/>
<text text-anchor="start" x="331.75" y="-985.27" font-family="Arial" font-size="14.00">&#39;r&#39;</text>
<text text-anchor="start" x="322.75" y="-969.52" font-family="Arial" font-size="14.00">« 7 »</text>
</g>
<!-- nodeid2400&#45;&gt;nodeid2402 -->
<!-- anond1e99&#45;&gt;nodeid2397 -->
<g id="edge35" class="edge">
<title>anond1e99&#45;&gt;nodeid2397</title>
<path fill="none" stroke="black" d="M145,-973.35C145,-961.95 145,-941.07 145,-923.53"/>
<polygon fill="black" stroke="black" points="148.5,-923.62 145,-913.62 141.5,-923.62 148.5,-923.62"/>
</g>
<!-- anond1e99&#45;&gt;nodeid2399 -->
<g id="edge36" class="edge">
<title>anond1e99&#45;&gt;nodeid2399</title>
<path fill="none" stroke="black" d="M153.87,-980.28C178.19,-975.64 246.73,-959.58 286,-920.29 306.61,-899.67 319.5,-869.35 327.17,-844.73"/>
<polygon fill="black" stroke="black" points="330.79,-845.81 330.24,-835.23 324.07,-843.85 330.79,-845.81"/>
</g>
<!-- nodeid2401 -->
<g id="node25" class="node">
<title>nodeid2401</title>
<path fill="none" stroke="black" d="M608,-1092.84C608,-1092.84 412,-1092.84 412,-1092.84 406,-1092.84 400,-1086.84 400,-1080.84 400,-1080.84 400,-1065.34 400,-1065.34 400,-1059.34 406,-1053.34 412,-1053.34 412,-1053.34 608,-1053.34 608,-1053.34 614,-1053.34 620,-1059.34 620,-1065.34 620,-1065.34 620,-1080.84 620,-1080.84 620,-1086.84 614,-1092.84 608,-1092.84"/>
<text text-anchor="start" x="408" y="-1075.54" font-family="Arial" font-size="14.00">floor&#45;wax ⇒ &#39;S&#39; &#39;h&#39; &#39;i&#39; &#39;m&#39; &#39;m&#39; &#39;e&#39; • &#39;r&#39;</text>
<text text-anchor="start" x="485.25" y="-1059.79" font-family="Arial" font-size="14.00">« 1 – 7 »</text>
</g>
<!-- anond1e109 -->
<g id="node26" class="node">
<title>anond1e109</title>
<ellipse fill="none" stroke="black" cx="510" cy="-982.82" rx="9" ry="9"/>
</g>
<!-- nodeid2401&#45;&gt;anond1e109 -->
<g id="edge37" class="edge">
<title>nodeid2401&#45;&gt;anond1e109</title>
<path fill="none" stroke="black" d="M510,-1052.94C510,-1038.2 510,-1017.92 510,-1003.14"/>
<polygon fill="black" stroke="black" points="513.5,-1003.26 510,-993.26 506.5,-1003.26 513.5,-1003.26"/>
</g>
<!-- nodeid2401&#45;&gt;nodeid2402 -->
<!-- anond1e109&#45;&gt;nodeid2398 -->
<g id="edge39" class="edge">
<title>anond1e109&#45;&gt;nodeid2398</title>
<path fill="none" stroke="black" d="M510,-973.35C510,-961.95 510,-941.07 510,-923.53"/>
<polygon fill="black" stroke="black" points="513.5,-923.62 510,-913.62 506.5,-923.62 513.5,-923.62"/>
</g>
<!-- anond1e109&#45;&gt;nodeid2399 -->
<g id="edge40" class="edge">
<title>anond1e109&#45;&gt;nodeid2399</title>
<path fill="none" stroke="black" d="M501.38,-979.67C479.54,-973.82 421.41,-955.63 388,-920.29 367.97,-899.11 355.06,-868.8 347.24,-844.33"/>
<polygon fill="black" stroke="black" points="350.34,-843.47 344.1,-834.91 343.63,-845.49 350.34,-843.47"/>
</g>
<!-- nodeid2403 -->
<g id="node28" class="node">
<title>nodeid2403</title>
<ellipse fill="none" stroke="#d55e00" stroke-width="3" cx="265" cy="-1210.77" rx="77.07" ry="27.93"/>
<text text-anchor="start" x="218.5" y="-1213.22" font-family="Arial" font-size="14.00">dessert&#45;topping</text>
<text text-anchor="start" x="240.25" y="-1197.47" font-family="Arial" font-size="14.00">« 1 – 8 »</text>
</g>
<!-- anond1e122 -->
<g id="node29" class="node">
<title>anond1e122</title>
<ellipse fill="none" stroke="black" cx="265" cy="-1137.84" rx="9" ry="9"/>
</g>
<!-- nodeid2403&#45;&gt;anond1e122 -->
<g id="edge41" class="edge">
<title>nodeid2403&#45;&gt;anond1e122</title>
<path fill="none" stroke="black" d="M265,-1181.74C265,-1173.8 265,-1165.34 265,-1158.05"/>
<polygon fill="black" stroke="black" points="268.5,-1158.18 265,-1148.18 261.5,-1158.18 268.5,-1158.18"/>
</g>
<!-- anond1e122&#45;&gt;nodeid2400 -->
<g id="edge43" class="edge">
<title>anond1e122&#45;&gt;nodeid2400</title>
<path fill="none" stroke="black" d="M257.13,-1132.72C243.82,-1125.77 215.94,-1111.18 191.3,-1098.3"/>
<polygon fill="black" stroke="black" points="193.19,-1094.82 182.71,-1093.28 189.95,-1101.02 193.19,-1094.82"/>
</g>
<!-- anond1e122&#45;&gt;nodeid2402 -->
<g id="edge44" class="edge">
<title>anond1e122&#45;&gt;nodeid2402</title>
<path fill="none" stroke="black" d="M269.6,-1129.53C274.04,-1122.36 280.83,-1111.03 286,-1100.84 299.04,-1075.13 312,-1045.33 321.59,-1022.24"/>
<polygon fill="black" stroke="black" points="325.18,-1023.72 325.75,-1013.14 318.7,-1021.06 325.18,-1023.72"/>
</g>
<!-- nodeid2404 -->
<g id="node30" class="node">
<title>nodeid2404</title>
<ellipse fill="none" stroke="black" cx="416" cy="-1210.77" rx="50.03" ry="27.93"/>
<text text-anchor="start" x="388.62" y="-1213.22" font-family="Arial" font-size="14.00">floor&#45;wax</text>
<text text-anchor="start" x="391.25" y="-1197.47" font-family="Arial" font-size="14.00">« 1 – 8 »</text>
</g>
<!-- anond1e132 -->
<g id="node31" class="node">
<title>anond1e132</title>
<ellipse fill="none" stroke="black" cx="416" cy="-1137.84" rx="9" ry="9"/>
</g>
<!-- nodeid2404&#45;&gt;anond1e132 -->
<g id="edge45" class="edge">
<title>nodeid2404&#45;&gt;anond1e132</title>
<path fill="none" stroke="black" d="M416,-1182.55C416,-1174.34 416,-1165.51 416,-1157.95"/>
<polygon fill="black" stroke="black" points="419.5,-1158.07 416,-1148.07 412.5,-1158.07 419.5,-1158.07"/>
</g>
<!-- anond1e132&#45;&gt;nodeid2401 -->
<g id="edge47" class="edge">
<title>anond1e132&#45;&gt;nodeid2401</title>
<path fill="none" stroke="black" d="M423.38,-1131.92C433.97,-1124.85 454.21,-1111.33 472.47,-1099.14"/>
<polygon fill="black" stroke="black" points="474.13,-1101.58 480.5,-1093.11 470.24,-1095.75 474.13,-1101.58"/>
</g>
<!-- anond1e132&#45;&gt;nodeid2402 -->
<g id="edge48" class="edge">
<title>anond1e132&#45;&gt;nodeid2402</title>
<path fill="none" stroke="black" d="M410.32,-1130.56C404.26,-1123.64 394.63,-1112 388,-1100.84 373.28,-1076.05 360.35,-1046.24 351.19,-1022.91"/>
<polygon fill="black" stroke="black" points="354.12,-1021.77 347.26,-1013.69 347.58,-1024.28 354.12,-1021.77"/>
</g>
<!-- nodeid2405 -->
<g id="node32" class="node">
<title>nodeid2405</title>
<ellipse fill="none" stroke="#d55e00" stroke-width="3" cx="340" cy="-1302.63" rx="58.51" ry="27.93"/>
<text text-anchor="start" x="317.5" y="-1305.08" font-family="Arial" font-size="14.00" fill="#0072b2">product</text>
<text text-anchor="start" x="306.62" y="-1289.33" font-family="Arial" font-size="14.00" fill="#0072b2">« 1 – 8 » / 2</text>
</g>
<!-- nodeid2405&#45;&gt;nodeid2403 -->
<g id="edge49" class="edge">
<title>nodeid2405&#45;&gt;nodeid2403</title>
<path fill="none" stroke="black" d="M318.31,-1275.64C310.81,-1266.66 302.29,-1256.44 294.28,-1246.86"/>
<polygon fill="black" stroke="black" points="296.52,-1245.08 287.43,-1239.64 291.15,-1249.56 296.52,-1245.08"/>
</g>
<!-- nodeid2405&#45;&gt;nodeid2404 -->
<g id="edge50" class="edge">
<title>nodeid2405&#45;&gt;nodeid2404</title>
<path fill="none" stroke="black" d="M361.98,-1275.64C370.13,-1266 379.49,-1254.94 388.1,-1244.76"/>
<polygon fill="black" stroke="black" points="391.33,-1247.36 395.11,-1237.47 385.98,-1242.84 391.33,-1247.36"/>
</g>
<!-- nodeid2406 -->
<g id="node33" class="node">
<title>nodeid2406</title>
<ellipse fill="none" stroke="#d55e00" stroke-width="3" cx="340" cy="-1394.49" rx="46.32" ry="27.93"/>
<text text-anchor="start" x="332.5" y="-1396.94" font-family="Arial" font-size="14.00">$$</text>
<text text-anchor="start" x="315.25" y="-1381.19" font-family="Arial" font-size="14.00">« 1 – 8 »</text>
</g>
<!-- nodeid2406&#45;&gt;nodeid2405 -->
<g id="edge51" class="edge">
<title>nodeid2406&#45;&gt;nodeid2405</title>
<path fill="none" stroke="black" d="M340,-1365.55C340,-1358.35 340,-1350.47 340,-1342.81"/>
<polygon fill="black" stroke="black" points="343.5,-1342.86 340,-1332.86 336.5,-1342.86 343.5,-1342.86"/>
</g>
</g>
</svg>
