<?xml version="1.0" encoding="UTF-8" standalone="no"?>
<!DOCTYPE svg PUBLIC "-//W3C//DTD SVG 1.1//EN"
 "http://www.w3.org/Graphics/SVG/1.1/DTD/svg11.dtd">
<!-- Generated by graphviz version 2.50.0 (20211204.2007)
 -->
<!-- Title: SPPF Pages: 1 -->
<svg width="676pt" height="778pt"
 viewBox="0.00 0.00 676.00 778.00" xmlns="http://www.w3.org/2000/svg" xmlns:xlink="http://www.w3.org/1999/xlink">
<g id="graph0" class="graph" transform="scale(1 1) rotate(0) translate(4 774)">
<title>SPPF</title>
<polygon fill="white" stroke="transparent" points="-4,4 -4,-774 672,-774 672,4 -4,4"/>
<g id="clust1" class="cluster">
<title>cluster_id56518</title>
<polygon fill="white" stroke="white" points="332,-80 332,-132 438,-132 438,-80 332,-80"/>
</g>
<g id="clust2" class="cluster">
<title>cluster_id685283517</title>
<polygon fill="white" stroke="white" points="242,-152 242,-204 324,-204 324,-152 242,-152"/>
</g>
<g id="clust3" class="cluster">
<title>cluster_id56382</title>
<polygon fill="white" stroke="white" points="230,-8 230,-60 336,-60 336,-8 230,-8"/>
</g>
<g id="clust4" class="cluster">
<title>cluster_id1830956409</title>
<polygon fill="white" stroke="white" points="242,-80 242,-132 324,-132 324,-80 242,-80"/>
</g>
<g id="clust5" class="cluster">
<title>cluster_id447319000</title>
<polygon fill="white" stroke="white" points="252,-233 252,-348 398,-348 398,-233 252,-233"/>
</g>
<g id="clust7" class="cluster">
<title>cluster_id447321292</title>
<polygon fill="white" stroke="white" points="8,-233 8,-348 154,-348 154,-233 8,-233"/>
</g>
<g id="clust9" class="cluster">
<title>cluster_id58387</title>
<polygon fill="white" stroke="white" points="132,-152 132,-204 234,-204 234,-152 132,-152"/>
</g>
<g id="clust10" class="cluster">
<title>cluster_id685283703</title>
<polygon fill="white" stroke="white" points="162,-224 162,-276 244,-276 244,-224 162,-224"/>
</g>
<g id="clust11" class="cluster">
<title>cluster_id524083459</title>
<polygon fill="white" stroke="white" points="288,-377 288,-492 398,-492 398,-377 288,-377"/>
</g>
<g id="clust13" class="cluster">
<title>cluster_id210253</title>
<polygon fill="white" stroke="white" points="406,-296 406,-420 506,-420 506,-296 406,-296"/>
</g>
<g id="clust14" class="cluster">
<title>cluster_id600359798</title>
<polygon fill="white" stroke="white" points="344,-512 344,-618 436,-618 436,-512 344,-512"/>
</g>
<g id="clust16" class="cluster">
<title>cluster_id465268401</title>
<polygon fill="white" stroke="white" points="342,-638 342,-690 438,-690 438,-638 342,-638"/>
</g>
<g id="clust17" class="cluster">
<title>cluster_id395528783</title>
<polygon fill="white" stroke="white" points="344,-710 344,-762 436,-762 436,-710 344,-710"/>
</g>
<g id="clust18" class="cluster">
<title>cluster_id51476</title>
<polygon fill="white" stroke="white" points="444,-710 444,-762 546,-762 546,-710 444,-710"/>
</g>
<g id="clust19" class="cluster">
<title>cluster_id56754</title>
<polygon fill="white" stroke="white" points="554,-710 554,-762 660,-762 660,-710 554,-710"/>
</g>
<!-- nodeid56518 -->
<g id="node1" class="node">
<title>nodeid56518</title>
<polygon fill="none" stroke="black" points="429.98,-111.56 385,-124 340.02,-111.56 340.06,-91.44 429.94,-91.44 429.98,-111.56"/>
<text text-anchor="middle" x="385" y="-102.3" font-family="Times,serif" font-size="14.00">&#39;c&#39;, 0, 1</text>
</g>
<!-- nodeid685283517 -->
<g id="node2" class="node">
<title>nodeid685283517</title>
<ellipse fill="none" stroke="black" cx="283" cy="-178" rx="33.29" ry="18"/>
<text text-anchor="middle" x="283" y="-174.3" font-family="Times,serif" font-size="14.00">c, 0, 1</text>
</g>
<!-- nodeid685283517&#45;&gt;nodeid56518 -->
<g id="edge1" class="edge">
<title>nodeid685283517&#45;&gt;nodeid56518</title>
<path fill="none" stroke="black" d="M302.67,-163.5C318.54,-152.61 341.03,-137.18 358.49,-125.19"/>
<polygon fill="black" stroke="black" points="360.84,-127.83 367.1,-119.28 356.88,-122.06 360.84,-127.83"/>
</g>
<!-- nodeid1830956409 -->
<g id="node4" class="node">
<title>nodeid1830956409</title>
<ellipse fill="none" stroke="black" cx="283" cy="-106" rx="33.29" ry="18"/>
<text text-anchor="middle" x="283" y="-102.3" font-family="Times,serif" font-size="14.00">v, 1, 2</text>
</g>
<!-- nodeid685283517&#45;&gt;nodeid1830956409 -->
<!-- nodeid685283517&#45;&gt;nodeid1830956409 -->
<!-- nodeid56382 -->
<g id="node3" class="node">
<title>nodeid56382</title>
<polygon fill="none" stroke="black" points="327.98,-39.56 283,-52 238.02,-39.56 238.06,-19.44 327.94,-19.44 327.98,-39.56"/>
<text text-anchor="middle" x="283" y="-30.3" font-family="Times,serif" font-size="14.00">&#39;a&#39;, 1, 2</text>
</g>
<!-- nodeid1830956409&#45;&gt;nodeid56382 -->
<g id="edge2" class="edge">
<title>nodeid1830956409&#45;&gt;nodeid56382</title>
<path fill="none" stroke="black" d="M283,-87.7C283,-79.98 283,-70.71 283,-62.11"/>
<polygon fill="black" stroke="black" points="286.5,-62.1 283,-52.1 279.5,-62.1 286.5,-62.1"/>
</g>
<!-- nodeid447319000 -->
<g id="node5" class="node">
<title>nodeid447319000</title>
<path fill="none" stroke="black" d="M377.5,-340C377.5,-340 272.5,-340 272.5,-340 266.5,-340 260.5,-334 260.5,-328 260.5,-328 260.5,-316 260.5,-316 260.5,-310 266.5,-304 272.5,-304 272.5,-304 377.5,-304 377.5,-304 383.5,-304 389.5,-310 389.5,-316 389.5,-316 389.5,-328 389.5,-328 389.5,-334 383.5,-340 377.5,-340"/>
<text text-anchor="middle" x="325" y="-318.3" font-family="Times,serif" font-size="14.00">word ⇒ c v • c, 0, 2</text>
</g>
<!-- anond0e19 -->
<g id="node6" class="node">
<title>anond0e19</title>
<ellipse fill="none" stroke="black" cx="325" cy="-250" rx="9" ry="9"/>
</g>
<!-- nodeid447319000&#45;&gt;anond0e19 -->
<g id="edge3" class="edge">
<title>nodeid447319000&#45;&gt;anond0e19</title>
<path fill="none" stroke="black" d="M325,-303.7C325,-293.23 325,-279.9 325,-269.27"/>
<polygon fill="black" stroke="black" points="328.5,-269.05 325,-259.05 321.5,-269.05 328.5,-269.05"/>
</g>
<!-- nodeid685283703 -->
<g id="node10" class="node">
<title>nodeid685283703</title>
<ellipse fill="none" stroke="black" cx="203" cy="-250" rx="33.29" ry="18"/>
<text text-anchor="middle" x="203" y="-246.3" font-family="Times,serif" font-size="14.00">c, 2, 3</text>
</g>
<!-- nodeid447319000&#45;&gt;nodeid685283703 -->
<!-- anond0e19&#45;&gt;nodeid685283517 -->
<g id="edge5" class="edge">
<title>anond0e19&#45;&gt;nodeid685283517</title>
<path fill="none" stroke="black" d="M320.66,-241.77C315.35,-232.92 306.07,-217.44 298.04,-204.07"/>
<polygon fill="black" stroke="black" points="300.9,-202.04 292.76,-195.26 294.9,-205.64 300.9,-202.04"/>
</g>
<!-- anond0e19&#45;&gt;nodeid1830956409 -->
<g id="edge6" class="edge">
<title>anond0e19&#45;&gt;nodeid1830956409</title>
<path fill="none" stroke="black" d="M327.36,-241.07C331.99,-223.99 340.77,-182.82 328,-152 324.21,-142.85 317.56,-134.6 310.52,-127.73"/>
<polygon fill="black" stroke="black" points="312.62,-124.91 302.84,-120.84 307.95,-130.13 312.62,-124.91"/>
</g>
<!-- nodeid447321292 -->
<g id="node7" class="node">
<title>nodeid447321292</title>
<path fill="none" stroke="black" d="M133.5,-340C133.5,-340 28.5,-340 28.5,-340 22.5,-340 16.5,-334 16.5,-328 16.5,-328 16.5,-316 16.5,-316 16.5,-310 22.5,-304 28.5,-304 28.5,-304 133.5,-304 133.5,-304 139.5,-304 145.5,-310 145.5,-316 145.5,-316 145.5,-328 145.5,-328 145.5,-334 139.5,-340 133.5,-340"/>
<text text-anchor="middle" x="81" y="-318.3" font-family="Times,serif" font-size="14.00">word ⇒ c v • v, 0, 2</text>
</g>
<!-- anond0e30 -->
<g id="node8" class="node">
<title>anond0e30</title>
<ellipse fill="none" stroke="black" cx="112" cy="-250" rx="9" ry="9"/>
</g>
<!-- nodeid447321292&#45;&gt;anond0e30 -->
<g id="edge7" class="edge">
<title>nodeid447321292&#45;&gt;anond0e30</title>
<path fill="none" stroke="black" d="M88.66,-303.7C93.5,-292.77 99.72,-278.73 104.52,-267.89"/>
<polygon fill="black" stroke="black" points="107.75,-269.24 108.6,-258.68 101.35,-266.41 107.75,-269.24"/>
</g>
<!-- anond0e30&#45;&gt;nodeid685283517 -->
<g id="edge9" class="edge">
<title>anond0e30&#45;&gt;nodeid685283517</title>
<path fill="none" stroke="black" d="M119.21,-244.33C128.04,-238.79 143.6,-229.61 158,-224 192.15,-210.7 203.91,-217.46 238,-204 242.96,-202.04 248.06,-199.63 252.96,-197.1"/>
<polygon fill="black" stroke="black" points="254.94,-200 262.04,-192.14 251.59,-193.86 254.94,-200"/>
</g>
<!-- anond0e30&#45;&gt;nodeid1830956409 -->
<g id="edge10" class="edge">
<title>anond0e30&#45;&gt;nodeid1830956409</title>
<path fill="none" stroke="black" d="M110.74,-241.04C108.35,-222.82 105.23,-177.66 128,-152 155.93,-120.53 204.43,-110.49 239.76,-107.58"/>
<polygon fill="black" stroke="black" points="240.06,-111.06 249.8,-106.91 239.59,-104.08 240.06,-111.06"/>
</g>
<!-- nodeid58387 -->
<g id="node9" class="node">
<title>nodeid58387</title>
<polygon fill="none" stroke="black" points="225.66,-183.56 183,-196 140.34,-183.56 140.38,-163.44 225.62,-163.44 225.66,-183.56"/>
<text text-anchor="middle" x="183" y="-174.3" font-family="Times,serif" font-size="14.00">&#39;t&#39;, 2, 3</text>
</g>
<!-- nodeid685283703&#45;&gt;nodeid58387 -->
<g id="edge11" class="edge">
<title>nodeid685283703&#45;&gt;nodeid58387</title>
<path fill="none" stroke="black" d="M198.16,-232.05C195.81,-223.82 192.93,-213.76 190.32,-204.61"/>
<polygon fill="black" stroke="black" points="193.64,-203.48 187.52,-194.83 186.9,-205.41 193.64,-203.48"/>
</g>
<!-- nodeid524083459 -->
<g id="node11" class="node">
<title>nodeid524083459</title>
<ellipse fill="none" stroke="black" cx="343" cy="-466" rx="47.39" ry="18"/>
<text text-anchor="middle" x="343" y="-462.3" font-family="Times,serif" font-size="14.00">word, 0, 3</text>
</g>
<!-- anond0e47 -->
<g id="node12" class="node">
<title>anond0e47</title>
<ellipse fill="none" stroke="black" cx="325" cy="-394" rx="9" ry="9"/>
</g>
<!-- nodeid524083459&#45;&gt;anond0e47 -->
<g id="edge12" class="edge">
<title>nodeid524083459&#45;&gt;anond0e47</title>
<path fill="none" stroke="black" d="M338.64,-448.05C335.92,-437.48 332.43,-423.89 329.66,-413.11"/>
<polygon fill="black" stroke="black" points="332.97,-411.95 327.09,-403.13 326.19,-413.69 332.97,-411.95"/>
</g>
<!-- nodeid210253 -->
<g id="node13" class="node">
<title>nodeid210253</title>
<ellipse fill="none" stroke="black" cx="456" cy="-394" rx="41.69" ry="18"/>
<text text-anchor="middle" x="456" y="-390.3" font-family="Times,serif" font-size="14.00">$2ⁿ, 3, 3</text>
</g>
<!-- nodeid524083459&#45;&gt;nodeid210253 -->
<!-- anond0e47&#45;&gt;nodeid447319000 -->
<g id="edge14" class="edge">
<title>anond0e47&#45;&gt;nodeid447319000</title>
<path fill="none" stroke="black" d="M325,-384.97C325,-376.58 325,-362.95 325,-350.6"/>
<polygon fill="black" stroke="black" points="328.5,-350.25 325,-340.25 321.5,-350.25 328.5,-350.25"/>
</g>
<!-- anond0e47&#45;&gt;nodeid685283703 -->
<g id="edge15" class="edge">
<title>anond0e47&#45;&gt;nodeid685283703</title>
<path fill="none" stroke="black" d="M316.72,-390.09C301.31,-384.31 268,-369.99 248,-348 229.54,-327.7 217.39,-298.51 210.42,-277.45"/>
<polygon fill="black" stroke="black" points="213.74,-276.34 207.42,-267.85 207.06,-278.44 213.74,-276.34"/>
</g>
<!-- epsilond0e57 -->
<g id="node14" class="node">
<title>epsilond0e57</title>
<text text-anchor="middle" x="456" y="-318.3" font-family="Times,serif" font-size="14.00">ε</text>
</g>
<!-- nodeid210253&#45;&gt;epsilond0e57 -->
<g id="edge16" class="edge">
<title>nodeid210253&#45;&gt;epsilond0e57</title>
<path fill="none" stroke="black" d="M456,-375.7C456,-367.98 456,-358.71 456,-350.11"/>
<polygon fill="black" stroke="black" points="459.5,-350.1 456,-340.1 452.5,-350.1 459.5,-350.1"/>
</g>
<!-- nodeid600359798 -->
<g id="node15" class="node">
<title>nodeid600359798</title>
<ellipse fill="none" stroke="black" cx="390" cy="-592" rx="38.19" ry="18"/>
<text text-anchor="middle" x="390" y="-588.3" font-family="Times,serif" font-size="14.00">$1, 0, 3</text>
</g>
<!-- anond0e62 -->
<g id="node16" class="node">
<title>anond0e62</title>
<ellipse fill="none" stroke="black" cx="390" cy="-529" rx="9" ry="9"/>
</g>
<!-- nodeid600359798&#45;&gt;anond0e62 -->
<g id="edge17" class="edge">
<title>nodeid600359798&#45;&gt;anond0e62</title>
<path fill="none" stroke="black" d="M390,-573.68C390,-565.73 390,-556.31 390,-548.25"/>
<polygon fill="black" stroke="black" points="393.5,-548.06 390,-538.06 386.5,-548.06 393.5,-548.06"/>
</g>
<!-- anond0e62&#45;&gt;nodeid524083459 -->
<g id="edge19" class="edge">
<title>anond0e62&#45;&gt;nodeid524083459</title>
<path fill="none" stroke="black" d="M384.97,-521.47C379.46,-514.32 370.29,-502.42 361.92,-491.56"/>
<polygon fill="black" stroke="black" points="364.63,-489.34 355.76,-483.56 359.09,-493.62 364.63,-489.34"/>
</g>
<!-- anond0e62&#45;&gt;nodeid210253 -->
<g id="edge20" class="edge">
<title>anond0e62&#45;&gt;nodeid210253</title>
<path fill="none" stroke="black" d="M393.74,-520.47C403.04,-501.72 427.58,-452.27 442.93,-421.34"/>
<polygon fill="black" stroke="black" points="446.25,-422.53 447.56,-412.02 439.98,-419.42 446.25,-422.53"/>
</g>
<!-- nodeid465268401 -->
<g id="node17" class="node">
<title>nodeid465268401</title>
<ellipse fill="none" stroke="black" cx="390" cy="-664" rx="40.09" ry="18"/>
<text text-anchor="middle" x="390" y="-660.3" font-family="Times,serif" font-size="14.00">list, 0, 3</text>
</g>
<!-- nodeid465268401&#45;&gt;nodeid600359798 -->
<g id="edge21" class="edge">
<title>nodeid465268401&#45;&gt;nodeid600359798</title>
<path fill="none" stroke="black" d="M390,-645.7C390,-637.98 390,-628.71 390,-620.11"/>
<polygon fill="black" stroke="black" points="393.5,-620.1 390,-610.1 386.5,-620.1 393.5,-620.1"/>
</g>
<!-- nodeid395528783 -->
<g id="node18" class="node">
<title>nodeid395528783</title>
<ellipse fill="none" stroke="black" cx="390" cy="-736" rx="38.19" ry="18"/>
<text text-anchor="middle" x="390" y="-732.3" font-family="Times,serif" font-size="14.00">$$, 0, 3</text>
</g>
<!-- nodeid395528783&#45;&gt;nodeid465268401 -->
<g id="edge22" class="edge">
<title>nodeid395528783&#45;&gt;nodeid465268401</title>
<path fill="none" stroke="black" d="M390,-717.7C390,-709.98 390,-700.71 390,-692.11"/>
<polygon fill="black" stroke="black" points="393.5,-692.1 390,-682.1 386.5,-692.1 393.5,-692.1"/>
</g>
<!-- nodeid51476 -->
<g id="node19" class="node">
<title>nodeid51476</title>
<polygon fill="none" stroke="black" points="537.66,-741.56 495,-754 452.34,-741.56 452.38,-721.44 537.62,-721.44 537.66,-741.56"/>
<text text-anchor="middle" x="495" y="-732.3" font-family="Times,serif" font-size="14.00">&#39;,&#39;, 3, 4</text>
</g>
<!-- nodeid56754 -->
<g id="node20" class="node">
<title>nodeid56754</title>
<polygon fill="none" stroke="black" points="651.98,-741.56 607,-754 562.02,-741.56 562.06,-721.44 651.94,-721.44 651.98,-741.56"/>
<text text-anchor="middle" x="607" y="-732.3" font-family="Times,serif" font-size="14.00">&#39;a&#39;, 4, 5</text>
</g>
</g>
</svg>
