<?xml version="1.0" encoding="UTF-8" standalone="no"?>
<!DOCTYPE svg PUBLIC "-//W3C//DTD SVG 1.1//EN"
 "http://www.w3.org/Graphics/SVG/1.1/DTD/svg11.dtd">
<!-- Generated by graphviz version 8.0.5 (20230430.1635)
 -->
<!-- Title: SPPF Pages: 1 -->
<svg width="739pt" height="385pt"
 viewBox="0.00 0.00 739.00 384.63" xmlns="http://www.w3.org/2000/svg" xmlns:xlink="http://www.w3.org/1999/xlink">
<g id="graph0" class="graph" transform="scale(1 1) rotate(0) translate(4 380.63)">
<title>SPPF</title>
<polygon fill="white" stroke="none" points="-4,4 -4,-380.63 735,-380.63 735,4 -4,4"/>
<g id="clust1" class="cluster">
<title>cluster_id2328</title>
<polygon fill="white" stroke="white" points="8,-99.86 8,-184.91 102,-184.91 102,-99.86 8,-99.86"/>
</g>
<g id="clust2" class="cluster">
<title>cluster_id2329</title>
<polygon fill="white" stroke="white" points="110,-106.45 110,-276.77 269,-276.77 269,-106.45 110,-106.45"/>
</g>
<g id="clust3" class="cluster">
<title>cluster_id2330</title>
<polygon fill="white" stroke="white" points="296,-296.77 296,-368.63 374,-368.63 374,-296.77 296,-296.77"/>
</g>
<g id="clust4" class="cluster">
<title>cluster_id2331</title>
<polygon fill="white" stroke="white" points="290,-106.45 290,-178.32 368,-178.32 368,-106.45 290,-106.45"/>
</g>
<g id="clust5" class="cluster">
<title>cluster_id2332</title>
<polygon fill="white" stroke="white" points="501,-204.91 501,-368.63 605,-368.63 605,-204.91 501,-204.91"/>
</g>
<g id="clust6" class="cluster">
<title>cluster_id2333</title>
<polygon fill="white" stroke="white" points="389,-106.45 389,-276.77 493,-276.77 493,-106.45 389,-106.45"/>
</g>
<g id="clust7" class="cluster">
<title>cluster_id2334</title>
<polygon fill="white" stroke="white" points="402,-8 402,-79.86 480,-79.86 480,-8 402,-8"/>
</g>
<g id="clust8" class="cluster">
<title>cluster_id2335</title>
<polygon fill="white" stroke="white" points="645,-204.91 645,-276.77 723,-276.77 723,-204.91 645,-204.91"/>
</g>
<g id="clust10" class="cluster">
<title>cluster_id2337</title>
<polygon fill="white" stroke="white" points="277,-204.91 277,-276.77 381,-276.77 381,-204.91 277,-204.91"/>
</g>
<g id="clust13" class="cluster">
<title>cluster_id2340</title>
<polygon fill="white" stroke="white" points="645,-296.77 645,-368.63 723,-368.63 723,-296.77 645,-296.77"/>
</g>
<!-- nodeid2328 -->
<g id="node1" class="node">
<title>nodeid2328</title>
<polygon fill="none" stroke="#d55e00" stroke-width="3" points="93.89,-153.05 55,-176.91 16.11,-153.05 16.14,-114.45 93.86,-114.45 93.89,-153.05"/>
<text text-anchor="start" x="50.12" y="-144.84" font-family="Arial" font-size="14.00">&#39;t&#39;</text>
<text text-anchor="start" x="40.75" y="-129.09" font-family="Arial" font-size="14.00">« 1 »</text>
</g>
<!-- nodeid2329 -->
<g id="node2" class="node">
<title>nodeid2329</title>
<ellipse fill="none" stroke="#d55e00" stroke-width="3" cx="217" cy="-240.84" rx="43.66" ry="27.93"/>
<text text-anchor="start" x="215.12" y="-243.29" font-family="Arial" font-size="14.00" fill="#0072b2">I</text>
<text text-anchor="start" x="194.12" y="-227.54" font-family="Arial" font-size="14.00" fill="#0072b2">« 1 » / 3</text>
</g>
<!-- nodeid2329&#45;&gt;nodeid2328 -->
<g id="edge1" class="edge">
<title>nodeid2329&#45;&gt;nodeid2328</title>
<path fill="none" stroke="black" d="M180.14,-224.12C157.99,-214.06 129.6,-200.09 106,-184.91 99.46,-180.71 92.8,-175.8 86.53,-170.87"/>
<polygon fill="black" stroke="black" points="89.26,-167.76 79.29,-164.18 84.85,-173.2 89.26,-167.76"/>
</g>
<!-- nodeid2338 -->
<g id="node3" class="node">
<title>nodeid2338</title>
<ellipse fill="none" stroke="black" cx="230" cy="-142.39" rx="31.47" ry="27.93"/>
<text text-anchor="start" x="224.38" y="-144.84" font-family="Arial" font-size="14.00">G</text>
<text text-anchor="start" x="215.75" y="-129.09" font-family="Arial" font-size="14.00">« 1 »</text>
</g>
<!-- nodeid2329&#45;&gt;nodeid2338 -->
<g id="edge2" class="edge">
<title>nodeid2329&#45;&gt;nodeid2338</title>
<path fill="none" stroke="black" d="M220.8,-211.68C222.08,-202.13 223.54,-191.29 224.92,-181.11"/>
<polygon fill="black" stroke="black" points="228.49,-181.8 226.36,-171.42 221.55,-180.86 228.49,-181.8"/>
</g>
<!-- nodeid2339 -->
<g id="node4" class="node">
<title>nodeid2339</title>
<ellipse fill="none" stroke="black" cx="149" cy="-142.39" rx="31.47" ry="27.93"/>
<text text-anchor="start" x="144.5" y="-144.84" font-family="Arial" font-size="14.00">K</text>
<text text-anchor="start" x="134.75" y="-129.09" font-family="Arial" font-size="14.00">« 1 »</text>
</g>
<!-- nodeid2329&#45;&gt;nodeid2339 -->
<g id="edge3" class="edge">
<title>nodeid2329&#45;&gt;nodeid2339</title>
<path fill="none" stroke="black" d="M198.78,-213.99C190.42,-202.14 180.43,-187.97 171.6,-175.44"/>
<polygon fill="black" stroke="black" points="174.03,-173.82 165.41,-167.67 168.31,-177.86 174.03,-173.82"/>
</g>
<!-- nodeid2334 -->
<g id="node10" class="node">
<title>nodeid2334</title>
<ellipse fill="none" stroke="#d55e00" stroke-width="3" cx="441" cy="-142.39" rx="43.66" ry="27.93"/>
<text text-anchor="start" x="436.5" y="-144.84" font-family="Arial" font-size="14.00" fill="#0072b2">A</text>
<text text-anchor="start" x="418.12" y="-129.09" font-family="Arial" font-size="14.00" fill="#0072b2">« 1 » / 3</text>
</g>
<!-- nodeid2338&#45;&gt;nodeid2334 -->
<g id="edge18" class="edge">
<title>nodeid2338&#45;&gt;nodeid2334</title>
<path fill="none" stroke="black" d="M249.93,-164.55C261.75,-176 277.76,-188.82 295,-194.91 323.49,-204.98 334.09,-203.73 363,-194.91 378.2,-190.27 393.12,-181.56 405.78,-172.55"/>
<polygon fill="black" stroke="black" points="407.65,-174.78 413.57,-165.99 403.46,-169.17 407.65,-174.78"/>
</g>
<!-- nodeid2339&#45;&gt;nodeid2334 -->
<g id="edge19" class="edge">
<title>nodeid2339&#45;&gt;nodeid2334</title>
<path fill="none" stroke="black" d="M165.02,-166.62C173.66,-177.44 185.35,-189.06 199,-194.91 232.5,-209.27 328.14,-205.55 363,-194.91 378.2,-190.27 393.12,-181.56 405.78,-172.55"/>
<polygon fill="black" stroke="black" points="407.65,-174.78 413.57,-165.99 403.46,-169.17 407.65,-174.78"/>
</g>
<!-- nodeid2330 -->
<g id="node5" class="node">
<title>nodeid2330</title>
<ellipse fill="none" stroke="#d55e00" stroke-width="3" cx="335" cy="-332.7" rx="31.47" ry="27.93"/>
<text text-anchor="start" x="330.5" y="-335.15" font-family="Arial" font-size="14.00">E</text>
<text text-anchor="start" x="320.75" y="-319.4" font-family="Arial" font-size="14.00">« 1 »</text>
</g>
<!-- nodeid2330&#45;&gt;nodeid2329 -->
<g id="edge4" class="edge">
<title>nodeid2330&#45;&gt;nodeid2329</title>
<path fill="none" stroke="black" d="M310.55,-313.08C294.31,-300.71 272.67,-284.23 254.29,-270.24"/>
<polygon fill="black" stroke="black" points="256.65,-266.87 246.57,-263.6 252.41,-272.44 256.65,-266.87"/>
</g>
<!-- nodeid2331 -->
<g id="node6" class="node">
<title>nodeid2331</title>
<ellipse fill="none" stroke="black" cx="329" cy="-142.39" rx="31.47" ry="27.93"/>
<text text-anchor="start" x="324.88" y="-144.84" font-family="Arial" font-size="14.00">F</text>
<text text-anchor="start" x="314.75" y="-129.09" font-family="Arial" font-size="14.00">« 1 »</text>
</g>
<!-- nodeid2331&#45;&gt;nodeid2329 -->
<g id="edge5" class="edge">
<title>nodeid2331&#45;&gt;nodeid2329</title>
<path fill="none" stroke="black" d="M306.68,-162.61C290.84,-176.25 269.27,-194.83 251.25,-210.34"/>
<polygon fill="black" stroke="black" points="249.55,-208.05 244.26,-217.23 254.12,-213.35 249.55,-208.05"/>
</g>
<!-- nodeid2332 -->
<g id="node7" class="node">
<title>nodeid2332</title>
<ellipse fill="none" stroke="#d55e00" stroke-width="3" cx="553" cy="-332.7" rx="43.66" ry="27.93"/>
<text text-anchor="start" x="548.5" y="-335.15" font-family="Arial" font-size="14.00" fill="#0072b2">B</text>
<text text-anchor="start" x="530.12" y="-319.4" font-family="Arial" font-size="14.00" fill="#0072b2">« 1 » / 2</text>
</g>
<!-- nodeid2332&#45;&gt;nodeid2330 -->
<g id="edge6" class="edge">
<title>nodeid2332&#45;&gt;nodeid2330</title>
<path fill="none" stroke="black" d="M508.14,-332.7C465.01,-332.7 421.88,-332.7 378.75,-332.7"/>
<polygon fill="black" stroke="black" points="378.79,-329.2 368.79,-332.7 378.79,-336.2 378.79,-329.2"/>
</g>
<!-- nodeid2337 -->
<g id="node8" class="node">
<title>nodeid2337</title>
<ellipse fill="none" stroke="black" cx="553" cy="-240.84" rx="43.66" ry="27.93"/>
<text text-anchor="start" x="548.12" y="-243.29" font-family="Arial" font-size="14.00" fill="#0072b2">D</text>
<text text-anchor="start" x="530.12" y="-227.54" font-family="Arial" font-size="14.00" fill="#0072b2">« 1 » / 2</text>
</g>
<!-- nodeid2332&#45;&gt;nodeid2337 -->
<g id="edge7" class="edge">
<title>nodeid2332&#45;&gt;nodeid2337</title>
<path fill="none" stroke="black" d="M553,-303.76C553,-296.27 553,-288.03 553,-280.09"/>
<polygon fill="black" stroke="black" points="556.5,-280.15 553,-270.15 549.5,-280.15 556.5,-280.15"/>
</g>
<!-- nodeid2337&#45;&gt;nodeid2334 -->
<g id="edge16" class="edge">
<title>nodeid2337&#45;&gt;nodeid2334</title>
<path fill="none" stroke="black" d="M527.59,-217.95C512.17,-204.67 492.28,-187.55 475.46,-173.06"/>
<polygon fill="black" stroke="black" points="478.34,-170.07 468.48,-166.19 473.78,-175.37 478.34,-170.07"/>
</g>
<!-- nodeid2341 -->
<g id="node13" class="node">
<title>nodeid2341</title>
<ellipse fill="none" stroke="black" cx="329" cy="-240.84" rx="43.66" ry="27.93"/>
<text text-anchor="start" x="324.12" y="-243.29" font-family="Arial" font-size="14.00" fill="#0072b2">H</text>
<text text-anchor="start" x="306.12" y="-227.54" font-family="Arial" font-size="14.00" fill="#0072b2">« 1 » / 2</text>
</g>
<!-- nodeid2337&#45;&gt;nodeid2341 -->
<g id="edge17" class="edge">
<title>nodeid2337&#45;&gt;nodeid2341</title>
<path fill="none" stroke="black" d="M527.82,-264.13C516.52,-273.04 502.49,-282.17 488,-286.77 448.18,-299.42 433.82,-299.42 394,-286.77 383.02,-283.28 372.3,-277.2 362.83,-270.58"/>
<polygon fill="black" stroke="black" points="365.29,-267.29 355.18,-264.13 361.11,-272.91 365.29,-267.29"/>
</g>
<!-- nodeid2333 -->
<g id="node9" class="node">
<title>nodeid2333</title>
<ellipse fill="none" stroke="black" cx="441" cy="-240.84" rx="43.66" ry="27.93"/>
<text text-anchor="start" x="436.12" y="-243.29" font-family="Arial" font-size="14.00" fill="#0072b2">C</text>
<text text-anchor="start" x="418.12" y="-227.54" font-family="Arial" font-size="14.00" fill="#0072b2">« 1 » / 3</text>
</g>
<!-- nodeid2333&#45;&gt;nodeid2338 -->
<g id="edge10" class="edge">
<title>nodeid2333&#45;&gt;nodeid2338</title>
<path fill="none" stroke="black" d="M412.41,-219.27C403.91,-213.93 394.37,-208.64 385,-204.91 343.29,-188.32 327.01,-203.16 286,-184.91 277.08,-180.94 268.23,-175.35 260.28,-169.56"/>
<polygon fill="black" stroke="black" points="262.8,-166.31 252.73,-163 258.54,-171.87 262.8,-166.31"/>
</g>
<!-- nodeid2333&#45;&gt;nodeid2331 -->
<g id="edge8" class="edge">
<title>nodeid2333&#45;&gt;nodeid2331</title>
<path fill="none" stroke="black" d="M415.59,-217.95C398.95,-203.62 377.11,-184.82 359.53,-169.68"/>
<polygon fill="black" stroke="black" points="362.14,-166.45 352.28,-162.58 357.58,-171.75 362.14,-166.45"/>
</g>
<!-- nodeid2333&#45;&gt;nodeid2334 -->
<g id="edge9" class="edge">
<title>nodeid2333&#45;&gt;nodeid2334</title>
<path fill="none" stroke="black" d="M434.86,-212.72C434.27,-203.22 434.11,-192.37 434.37,-182.11"/>
<polygon fill="black" stroke="black" points="437.9,-182.45 434.81,-172.31 430.9,-182.16 437.9,-182.45"/>
</g>
<!-- nodeid2334&#45;&gt;nodeid2332 -->
<g id="edge11" class="edge">
<title>nodeid2334&#45;&gt;nodeid2332</title>
<path fill="none" stroke="black" d="M485.54,-146.43C524.54,-151.74 579.06,-166.11 606,-204.91 624.22,-231.14 617.96,-247.16 606,-276.77 602.21,-286.16 595.96,-294.83 589.07,-302.38"/>
<polygon fill="black" stroke="black" points="586.96,-299.55 582.41,-309.12 591.93,-304.47 586.96,-299.55"/>
</g>
<!-- nodeid2334&#45;&gt;nodeid2333 -->
<g id="edge12" class="edge">
<title>nodeid2334&#45;&gt;nodeid2333</title>
<path fill="none" stroke="black" d="M447.19,-171.31C447.75,-180.88 447.89,-191.75 447.61,-201.97"/>
<polygon fill="black" stroke="black" points="444.08,-201.57 447.14,-211.72 451.07,-201.88 444.08,-201.57"/>
</g>
<!-- nodeid2336 -->
<g id="node11" class="node">
<title>nodeid2336</title>
<ellipse fill="none" stroke="black" cx="441" cy="-43.93" rx="31.47" ry="27.93"/>
<text text-anchor="start" x="436.5" y="-46.38" font-family="Arial" font-size="14.00">X</text>
<text text-anchor="start" x="426.75" y="-30.63" font-family="Arial" font-size="14.00">« 1 »</text>
</g>
<!-- nodeid2334&#45;&gt;nodeid2336 -->
<g id="edge13" class="edge">
<title>nodeid2334&#45;&gt;nodeid2336</title>
<path fill="none" stroke="black" d="M447.19,-113.49C447.75,-103.84 447.89,-92.87 447.6,-82.58"/>
<polygon fill="black" stroke="black" points="451.06,-82.6 447.12,-72.77 444.07,-82.92 451.06,-82.6"/>
</g>
<!-- nodeid2336&#45;&gt;nodeid2334 -->
<g id="edge15" class="edge">
<title>nodeid2336&#45;&gt;nodeid2334</title>
<path fill="none" stroke="black" d="M434.88,-71.77C434.28,-81.31 434.11,-92.26 434.37,-102.6"/>
<polygon fill="black" stroke="black" points="430.91,-102.64 434.81,-112.49 437.9,-102.35 430.91,-102.64"/>
</g>
<!-- nodeid2335 -->
<g id="node12" class="node">
<title>nodeid2335</title>
<ellipse fill="none" stroke="#d55e00" stroke-width="3" cx="684" cy="-240.84" rx="31.47" ry="27.93"/>
<text text-anchor="start" x="679.5" y="-243.29" font-family="Arial" font-size="14.00">S</text>
<text text-anchor="start" x="669.75" y="-227.54" font-family="Arial" font-size="14.00">« 1 »</text>
</g>
<!-- nodeid2335&#45;&gt;nodeid2334 -->
<g id="edge14" class="edge">
<title>nodeid2335&#45;&gt;nodeid2334</title>
<path fill="none" stroke="black" d="M661.27,-219.65C654.45,-214.32 646.72,-208.93 639,-204.91 592.71,-180.77 535.31,-164.23 494.26,-154.44"/>
<polygon fill="black" stroke="black" points="495.2,-150.83 484.66,-151.97 493.61,-157.65 495.2,-150.83"/>
</g>
<!-- nodeid2341&#45;&gt;nodeid2339 -->
<g id="edge22" class="edge">
<title>nodeid2341&#45;&gt;nodeid2339</title>
<path fill="none" stroke="black" d="M300.32,-219.49C291.82,-214.16 282.3,-208.81 273,-204.91 238.01,-190.24 223.04,-203.57 190,-184.91 184.46,-181.78 179.17,-177.69 174.35,-173.3"/>
<polygon fill="black" stroke="black" points="177.27,-171.28 167.7,-166.73 172.35,-176.25 177.27,-171.28"/>
</g>
<!-- nodeid2341&#45;&gt;nodeid2337 -->
<g id="edge21" class="edge">
<title>nodeid2341&#45;&gt;nodeid2337</title>
<path fill="none" stroke="black" d="M354.18,-264.13C365.48,-273.04 379.51,-282.17 394,-286.77 433.82,-299.42 448.18,-299.42 488,-286.77 498.98,-283.28 509.7,-277.2 519.17,-270.58"/>
<polygon fill="black" stroke="black" points="520.89,-272.91 526.82,-264.13 516.71,-267.29 520.89,-272.91"/>
</g>
<!-- nodeid2340 -->
<g id="node14" class="node">
<title>nodeid2340</title>
<ellipse fill="none" stroke="#d55e00" stroke-width="3" cx="684" cy="-332.7" rx="31.47" ry="27.93"/>
<text text-anchor="start" x="676.5" y="-335.15" font-family="Arial" font-size="14.00">$$</text>
<text text-anchor="start" x="669.75" y="-319.4" font-family="Arial" font-size="14.00">« 1 »</text>
</g>
<!-- nodeid2340&#45;&gt;nodeid2335 -->
<g id="edge20" class="edge">
<title>nodeid2340&#45;&gt;nodeid2335</title>
<path fill="none" stroke="black" d="M684,-303.76C684,-296.56 684,-288.68 684,-281.02"/>
<polygon fill="black" stroke="black" points="687.5,-281.07 684,-271.07 680.5,-281.07 687.5,-281.07"/>
</g>
</g>
</svg>
