<?xml version="1.0" encoding="UTF-8" standalone="no"?>
<!DOCTYPE svg PUBLIC "-//W3C//DTD SVG 1.1//EN"
 "http://www.w3.org/Graphics/SVG/1.1/DTD/svg11.dtd">
<!-- Generated by graphviz version 8.0.5 (20230430.1635)
 -->
<!-- Title: SPPF Pages: 1 -->
<svg width="690pt" height="177pt"
 viewBox="0.00 0.00 689.96 177.00" xmlns="http://www.w3.org/2000/svg" xmlns:xlink="http://www.w3.org/1999/xlink">
<g id="graph0" class="graph" transform="scale(1 1) rotate(0) translate(4 173)">
<title>SPPF</title>
<polygon fill="white" stroke="none" points="-4,4 -4,-173 685.96,-173 685.96,4 -4,4"/>
<g id="clust1" class="cluster">
<title>cluster_id1665</title>
<polygon fill="white" stroke="white" points="580.17,-8 580.17,-94 673.96,-94 673.96,-8 580.17,-8"/>
</g>
<g id="clust2" class="cluster">
<title>cluster_id1666</title>
<polygon fill="white" stroke="white" points="210.19,-51 210.19,-161 560.17,-161 560.17,-51 210.19,-51"/>
</g>
<g id="clust5" class="cluster">
<title>cluster_id1669</title>
<polygon fill="white" stroke="white" points="111.25,-51 111.25,-123 190.19,-123 190.19,-51 111.25,-51"/>
</g>
<!-- nodeid1665 -->
<g id="node1" class="node">
<title>nodeid1665</title>
<polygon fill="none" stroke="black" points="665.96,-61.67 627.06,-85.52 588.17,-61.67 588.21,-23.07 665.92,-23.07 665.96,-61.67"/>
<text text-anchor="start" x="620.69" y="-53.45" font-family="Arial" font-size="14.00">&#39;x&#39;</text>
<text text-anchor="start" x="612.81" y="-37.7" font-family="Arial" font-size="14.00">« 1 »</text>
</g>
<!-- nodeid1666 -->
<g id="node2" class="node">
<title>nodeid1666</title>
<ellipse fill="none" stroke="black" cx="261.85" cy="-87" rx="43.66" ry="27.93"/>
<text text-anchor="start" x="257.35" y="-89.45" font-family="Arial" font-size="14.00" fill="#0072b2">X</text>
<text text-anchor="start" x="238.98" y="-73.7" font-family="Arial" font-size="14.00" fill="#0072b2">« 1 » / 4</text>
</g>
<!-- nodeid1666&#45;&gt;nodeid1665 -->
<g id="edge1" class="edge">
<title>nodeid1666&#45;&gt;nodeid1665</title>
<path fill="none" stroke="black" d="M294.61,-68.16C308.51,-60.96 325.31,-53.62 341.51,-50 422.42,-31.92 519.53,-37.97 576.83,-44.29"/>
<polygon fill="black" stroke="black" points="576.41,-47.88 586.74,-45.55 577.21,-40.93 576.41,-47.88"/>
</g>
<!-- nodeid1666&#45;&gt;nodeid1666 -->
<g id="edge2" class="edge">
<title>nodeid1666&#45;&gt;nodeid1666</title>
<path fill="none" stroke="black" d="M241.34,-112.04C239.39,-123.24 246.22,-132.93 261.85,-132.93 272.11,-132.93 278.58,-128.76 281.26,-122.72"/>
<polygon fill="black" stroke="black" points="284.82,-123.35 282.36,-113.04 277.85,-122.63 284.82,-123.35"/>
</g>
<!-- nodeid1667 -->
<g id="node3" class="node">
<title>nodeid1667</title>
<ellipse fill="none" stroke="black" cx="385.18" cy="-87" rx="43.66" ry="27.93"/>
<text text-anchor="start" x="380.68" y="-89.45" font-family="Arial" font-size="14.00" fill="#0072b2">Y</text>
<text text-anchor="start" x="362.3" y="-73.7" font-family="Arial" font-size="14.00" fill="#0072b2">« 1 » / 4</text>
</g>
<!-- nodeid1666&#45;&gt;nodeid1667 -->
<g id="edge3" class="edge">
<title>nodeid1666&#45;&gt;nodeid1667</title>
<path fill="none" stroke="black" d="M304.6,-80.55C313.28,-80.27 322.53,-80.18 331.53,-80.3"/>
<polygon fill="black" stroke="black" points="331.27,-83.82 341.35,-80.55 331.43,-76.82 331.27,-83.82"/>
</g>
<!-- nodeid1668 -->
<g id="node4" class="node">
<title>nodeid1668</title>
<ellipse fill="none" stroke="black" cx="508.51" cy="-107" rx="43.66" ry="27.93"/>
<text text-anchor="start" x="504.38" y="-109.45" font-family="Arial" font-size="14.00" fill="#0072b2">Z</text>
<text text-anchor="start" x="485.63" y="-93.7" font-family="Arial" font-size="14.00" fill="#0072b2">« 1 » / 4</text>
</g>
<!-- nodeid1666&#45;&gt;nodeid1668 -->
<g id="edge4" class="edge">
<title>nodeid1666&#45;&gt;nodeid1668</title>
<path fill="none" stroke="black" d="M293.36,-106.6C307.05,-116.56 324.03,-127.49 341.51,-133 378.53,-144.66 390.88,-141.06 428.84,-133 438.93,-130.86 449.3,-127.32 459.07,-123.48"/>
<polygon fill="black" stroke="black" points="460.06,-126.45 467.98,-119.42 457.4,-119.97 460.06,-126.45"/>
</g>
<!-- nodeid1667&#45;&gt;nodeid1665 -->
<g id="edge5" class="edge">
<title>nodeid1667&#45;&gt;nodeid1665</title>
<path fill="none" stroke="black" d="M426.46,-77.52C438.73,-74.84 452.3,-72.09 464.84,-70 502.27,-63.77 544.92,-58.83 576.95,-55.56"/>
<polygon fill="black" stroke="black" points="577.21,-58.95 586.81,-54.47 576.51,-51.98 577.21,-58.95"/>
</g>
<!-- nodeid1667&#45;&gt;nodeid1666 -->
<g id="edge6" class="edge">
<title>nodeid1667&#45;&gt;nodeid1666</title>
<path fill="none" stroke="black" d="M342.35,-93.45C333.67,-93.74 324.42,-93.82 315.41,-93.7"/>
<polygon fill="black" stroke="black" points="315.68,-90.18 305.6,-93.45 315.52,-97.18 315.68,-90.18"/>
</g>
<!-- nodeid1667&#45;&gt;nodeid1667 -->
<g id="edge7" class="edge">
<title>nodeid1667&#45;&gt;nodeid1667</title>
<path fill="none" stroke="black" d="M362.62,-111.1C359.83,-122.7 367.35,-132.93 385.18,-132.93 397.15,-132.93 404.48,-128.31 407.15,-121.76"/>
<polygon fill="black" stroke="black" points="410.68,-122.28 407.74,-112.1 403.69,-121.9 410.68,-122.28"/>
</g>
<!-- nodeid1667&#45;&gt;nodeid1668 -->
<g id="edge8" class="edge">
<title>nodeid1667&#45;&gt;nodeid1668</title>
<path fill="none" stroke="black" d="M429.3,-87.62C438.8,-88.9 448.93,-90.52 458.64,-92.31"/>
<polygon fill="black" stroke="black" points="457.88,-95.92 468.37,-94.39 459.22,-89.05 457.88,-95.92"/>
</g>
<!-- nodeid1668&#45;&gt;nodeid1665 -->
<g id="edge9" class="edge">
<title>nodeid1668&#45;&gt;nodeid1665</title>
<path fill="none" stroke="black" d="M544.16,-90.35C557,-84.18 571.67,-77.13 585.02,-70.72"/>
<polygon fill="black" stroke="black" points="586.42,-73.45 593.91,-65.97 583.39,-67.14 586.42,-73.45"/>
</g>
<!-- nodeid1668&#45;&gt;nodeid1666 -->
<g id="edge10" class="edge">
<title>nodeid1668&#45;&gt;nodeid1666</title>
<path fill="none" stroke="black" d="M481.86,-129.6C466.92,-138.41 447.41,-147.06 428.84,-151 390.88,-159.06 378.53,-162.66 341.51,-151 322.25,-144.93 303.59,-132.28 289.29,-119.68"/>
<polygon fill="black" stroke="black" points="292.09,-117.59 282.39,-113.32 287.32,-122.7 292.09,-117.59"/>
</g>
<!-- nodeid1668&#45;&gt;nodeid1667 -->
<g id="edge11" class="edge">
<title>nodeid1668&#45;&gt;nodeid1667</title>
<path fill="none" stroke="black" d="M464.73,-106.43C455.22,-105.16 445.07,-103.54 435.33,-101.74"/>
<polygon fill="black" stroke="black" points="436.05,-98.12 425.57,-99.66 434.72,-105 436.05,-98.12"/>
</g>
<!-- nodeid1668&#45;&gt;nodeid1668 -->
<g id="edge12" class="edge">
<title>nodeid1668&#45;&gt;nodeid1668</title>
<path fill="none" stroke="black" d="M486.72,-131.57C484.34,-142.97 491.6,-152.93 508.51,-152.93 519.6,-152.93 526.54,-148.64 529.33,-142.47"/>
<polygon fill="black" stroke="black" points="532.9,-142.84 530.3,-132.57 525.93,-142.22 532.9,-142.84"/>
</g>
<!-- nodeid1669 -->
<g id="node5" class="node">
<title>nodeid1669</title>
<ellipse fill="none" stroke="black" cx="150.72" cy="-87" rx="31.47" ry="27.93"/>
<text text-anchor="start" x="146.22" y="-89.45" font-family="Arial" font-size="14.00">S</text>
<text text-anchor="start" x="136.47" y="-73.7" font-family="Arial" font-size="14.00">« 1 »</text>
</g>
<!-- nodeid1669&#45;&gt;nodeid1666 -->
<g id="edge13" class="edge">
<title>nodeid1669&#45;&gt;nodeid1666</title>
<path fill="none" stroke="black" d="M182.41,-87C190.04,-87 198.44,-87 206.82,-87"/>
<polygon fill="black" stroke="black" points="206.77,-90.5 216.77,-87 206.77,-83.5 206.77,-90.5"/>
</g>
<!-- fakeroot -->
<!-- fakeroot&#45;&gt;nodeid1669 -->
<g id="edge14" class="edge">
<title>fakeroot&#45;&gt;nodeid1669</title>
<path fill="none" stroke="#aaaaaa" stroke-dasharray="5,2" d="M83.73,-87C91.66,-87 99.99,-87 107.95,-87"/>
<polygon fill="#aaaaaa" stroke="#aaaaaa" points="107.88,-90.5 117.88,-87 107.88,-83.5 107.88,-90.5"/>
</g>
</g>
</svg>
